<?xml version="1.0" encoding="utf-8"?>
<!-- Generator: Adobe Illustrator 22.1.0, SVG Export Plug-In . SVG Version: 6.00 Build 0)  -->
<svg version="1.1" id="Layer_1" xmlns="http://www.w3.org/2000/svg" xmlns:xlink="http://www.w3.org/1999/xlink" x="0px" y="0px"
	 viewBox="0 0 301.9 296" style="enable-background:new 0 0 301.9 296;" xml:space="preserve">
<style type="text/css">
	.st0{opacity:0.42;fill:url(#SVGID_1_);}
	.st1{fill:url(#SVGID_2_);}
	.st2{fill:#606161;}
	.st3{fill:url(#SVGID_3_);}
	.st4{opacity:0.42;fill:url(#SVGID_4_);}
	.st5{opacity:0.42;fill:url(#SVGID_5_);}
	.st6{fill:#ABABAB;}
	.st7{fill:#F1F2F2;}
	.st8{opacity:0.42;fill:url(#SVGID_6_);}
	.st9{opacity:0.42;fill:url(#SVGID_7_);}
	.st10{opacity:0.42;fill:url(#SVGID_8_);}
	.st11{opacity:0.42;fill:url(#SVGID_9_);}
	.st12{opacity:0.53;fill:#00A79D;}
	.st13{opacity:0.45;fill:#172F4D;}
	.st14{opacity:0.3;fill:#D3D3D3;}
	.st15{opacity:0.28;fill:#00A79D;}
	.st16{opacity:0.4;fill:#D3D3D3;}
	.st17{opacity:0.15;fill:#EE2A7B;}
	.st18{opacity:0.45;fill:#D3D3D3;}
	.st19{fill:#D3D3D3;}
	.st20{fill:#FFFFFF;}
	.st21{opacity:0.15;fill:#00A79D;}
	.st22{fill:#00A79D;}
	.st23{opacity:0.17;fill:#00A79D;}
	.st24{fill:#F9F9FA;}
	.st25{opacity:0.62;fill:#F7F7F7;}
	.st26{fill:#F8FCFD;}
	.st27{opacity:0.68;fill:#F8FCFD;}
	.st28{opacity:0.63;fill:#FFFFFF;}
	.st29{opacity:0.23;fill:#00A79D;}
	.st30{fill:#270E14;}
	.st31{opacity:0.33;fill:#00A79D;}
	.st32{fill:none;}
	.st33{opacity:0.35;fill:#00A79D;}
	.st34{opacity:0.62;fill:#EFF8F8;}
	.st35{fill:#1B75BC;}
	.st36{opacity:0.73;}
	.st37{fill:#66686C;}
	.st38{fill:#424D5C;}
	.st39{fill:#F8F8F8;}
	.st40{fill:#6EC4D6;}
	.st41{fill:#A5DCED;}
	.st42{fill:#EFEEED;}
	.st43{fill:#D7D7D6;}
	.st44{fill:#C8C8C8;}
	.st45{opacity:0.72;fill:#00A79D;}
	.st46{fill:none;stroke:#2B3990;stroke-miterlimit:10;stroke-dasharray:12.3981,12.3981;}
	.st47{fill:none;stroke:#2B3990;stroke-linecap:round;stroke-miterlimit:7;stroke-dasharray:3,0,0,0,0;}
	.st48{fill:#75787C;}
	.st49{fill:#41BEAC;}
	.st50{fill:#151515;}
	.st51{fill:#101010;}
	.st52{fill:#FECF0B;}
	.st53{fill:#232424;}
	.st54{fill:#F59820;}
	.st55{fill:#1A1A1A;}
	.st56{fill:#2D2E2E;}
	.st57{fill:#50C5F0;}
	.st58{fill:#FFD017;}
	.st59{fill:#69C7F1;}
	.st60{fill:#9CCA3F;}
	.st61{fill:#373737;}
	.st62{fill:#EED638;}
	.st63{fill:#F8F8F6;}
	.st64{fill:#FEFEFD;}
	.st65{fill:#F1F0EE;}
	.st66{opacity:0.57;}
	.st67{opacity:0.15;fill:#75787C;}
	.st68{fill:url(#SVGID_10_);}
	.st69{fill:#2E2E80;}
	.st70{fill:#356F83;}
	.st71{fill:#999999;}
	.st72{fill:#93A4A5;}
	.st73{fill:#FFD55E;}
	.st74{fill:#FEFEFE;}
	.st75{fill:#1FB579;}
	.st76{fill:#D86D28;}
	.st77{fill:#D2D1D1;}
	.st78{fill:#FDFEFD;}
	.st79{fill:#45B19B;}
	.st80{fill:#44B39C;}
	.st81{fill:#48B19B;}
	.st82{fill:#46AD97;}
	.st83{fill:#EAE9E8;}
	.st84{fill:#E9E9E8;}
	.st85{fill:#344E5D;}
	.st86{fill:#DF7B3E;}
	.st87{fill:#ECC64B;}
	.st88{fill:#EEC74B;}
	.st89{fill:#EFC84B;}
	.st90{fill:#4B626F;}
	.st91{fill:#E5C048;}
	.st92{fill:#4B606E;}
	.st93{fill:#E8EBEB;}
	.st94{fill:#FACD65;}
	.st95{fill:#364F5D;}
	.st96{fill:#4D616F;}
	.st97{fill:#7EC9CA;}
	.st98{fill:#E27C3D;}
	.st99{fill:#4B6370;}
	.st100{fill:#E27C3C;}
	.st101{fill:#E6E8E8;}
	.st102{fill:#E7E8E8;}
	.st103{fill:#E17B3D;}
	.st104{fill:#E27F42;}
	.st105{opacity:0.42;fill:url(#SVGID_11_);}
	.st106{opacity:0.7;}
	.st107{opacity:0.42;fill:url(#SVGID_12_);}
	.st108{opacity:0.42;fill:#FFFFFF;}
	.st109{opacity:0.47;fill:#7A8483;}
	.st110{opacity:0.21;fill:#FEFFFF;}
	.st111{fill:#393E46;}
	.st112{fill:#DAD8D5;}
	.st113{fill:#F2F2F2;}
	.st114{fill:#EF7245;}
	.st115{fill:#51C4D0;}
	.st116{fill:#FAFDFF;}
	.st117{fill:#E5B54E;}
	.st118{fill:#FDFEFC;}
	.st119{fill:#F8CF1E;}
	.st120{fill:#F8CF1B;}
	.st121{fill:#FDE0C3;}
	.st122{fill:#28434C;}
	.st123{fill:#79C1B0;}
	.st124{fill:#F0E65E;}
	.st125{fill:#DA615A;}
	.st126{fill:#F7CE18;}
	.st127{fill:#F8CB10;}
	.st128{fill:#C09945;}
	.st129{fill:#E8B84F;}
	.st130{fill:#CCCBC9;}
	.st131{fill:#415461;}
	.st132{fill:#F36F42;}
	.st133{fill:#FFFEFF;stroke:#FFFFFF;stroke-miterlimit:10;}
	.st134{fill:#F4F1EE;}
	.st135{fill:none;stroke:#FFFFFF;stroke-miterlimit:10;}
	.st136{fill:#F79B37;}
	.st137{fill:#F3C241;}
	.st138{fill:#BBC1C5;}
	.st139{fill:#FCFCFD;}
	.st140{fill:none;stroke:#2B3990;stroke-miterlimit:10;stroke-dasharray:11.9667,11.9667;}
	.st141{fill:#CECECE;}
	.st142{fill:#CACACA;}
	.st143{fill:#F9F9FA;stroke:#F7F9F9;stroke-miterlimit:10;}
	.st144{fill:#F37758;}
	.st145{fill:#5D6571;}
	.st146{fill:#FFFFFF;stroke:#424D5C;stroke-miterlimit:10;}
	.st147{fill:#619D9D;}
	.st148{fill:#5E9998;}
	.st149{fill:url(#SVGID_13_);}
	.st150{opacity:0.1;fill:#606161;}
	.st151{opacity:0.68;fill:#FFFFFF;}
	.st152{fill:#1F4D8E;}
	.st153{fill:#FEF7F5;}
	.st154{fill:#ED5940;}
	.st155{fill:#9C479B;}
	.st156{fill:#794D9F;}
	.st157{fill:#EC3F56;}
	.st158{fill:#AF4298;}
	.st159{fill:#E4376A;}
	.st160{fill:#D63981;}
	.st161{fill:#C73D94;}
	.st162{fill:#DF3874;}
	.st163{fill:#18AD4C;}
	.st164{opacity:0.68;fill:#FFFFFF;stroke:#727373;stroke-miterlimit:7;}
</style>
<g>
	<path class="st154" d="M180.2,165.6c-6,19.6-28.5,29.3-46.7,20.2c0.8-2.2,3-2.1,4.6-2.8c10.6-4.7,21.3-9.2,32-13.6
		C173.4,168,176.6,166.2,180.2,165.6z"/>
	<path class="st155" d="M161.7,124.8c3.8,1.6,7.2,3.8,9.9,6.8c-0.9,1.7-2.8,1.9-4.2,2.6c-2.4,1.2-5.3,1.5-7.2,3.9
		c-0.9-0.2-1.8-0.5-2.7-0.5c-5.9,0-11.8-0.1-17.7,0c-4.5,0.1-8.1,4.1-8.2,8.5c0,1.2-0.1,2.4-0.1,3.6c-0.6,0.2-1.2,0.3-1.7,0.5
		c-5.2,2-10.1,4.6-15.4,6.3c-0.2-4.1,0.3-8,1.8-11.8c0.9-0.2,1.8-0.3,2.6-0.7c13.9-5.8,27.7-11.7,41.5-17.6
		C161.2,126.1,161.8,125.8,161.7,124.8z"/>
	<path class="st156" d="M161.7,124.8c0.1,0.9-0.5,1.3-1.2,1.6c-13.8,5.9-27.7,11.7-41.5,17.6c-0.8,0.3-1.7,0.5-2.6,0.7
		C121.7,126.4,144.5,116.4,161.7,124.8z"/>
	<path class="st157" d="M180.2,165.6c-3.6,0.6-6.8,2.4-10.1,3.8c-10.7,4.5-21.4,9-32,13.6c-1.6,0.7-3.8,0.6-4.6,2.8
		c-2.2-0.9-4.2-2.1-5.9-3.7c0.4-0.9,1.1-1.4,2-1.7c3.9-1.6,7.7-3.4,11.6-4.9c3.7-1.4,7.2-3.7,11.5-3.1c1.9,0.3,3.9,0.4,5.8-0.3
		c4.3-0.9,6.6-3.7,7.7-7.8c0.9,0,1.6-0.4,2.3-0.7c4.4-1.7,8.5-3.9,13.1-5.2C181.6,160.9,181,163.3,180.2,165.6z"/>
	<path class="st158" d="M114.5,156.5c5.3-1.8,10.2-4.4,15.4-6.3c0.5-0.2,1.1-0.3,1.7-0.5c0,2.7,0,5.4,0,8.2
		c-0.9-0.1-1.6,0.2-2.4,0.6c-4.6,1.8-8.9,4.1-13.6,5.4C114.9,161.5,114.4,159,114.5,156.5z"/>
	<path class="st159" d="M158.5,172.1c-1.9,0.7-3.9,0.5-5.8,0.3c-4.4-0.6-7.8,1.7-11.5,3.1c-3.9,1.5-7.8,3.2-11.6,4.9
		c-0.9,0.4-1.6,0.9-2,1.7c-1.9-1.2-3.5-2.9-4.9-4.7c0.1-1,0.9-1.1,1.6-1.4c3.9-1.7,7.7-3.3,11.6-4.9c1.9,0.8,3.9,1,5.9,0.9
		C147.3,172,152.9,172,158.5,172.1z"/>
	<path class="st159" d="M181.6,158.4c-4.5,1.3-8.7,3.5-13.1,5.2c-0.8,0.3-1.5,0.7-2.3,0.7c0-2.3,0-4.6,0-6.9
		c2.8-0.2,5.2-1.8,7.8-2.8c2.5-1,4.8-2.4,7.5-2.7C181.8,154.1,181.9,156.2,181.6,158.4z"/>
	<path class="st158" d="M160.3,138.1c1.8-2.3,4.7-2.6,7.2-3.9c1.5-0.8,3.3-0.9,4.2-2.6c2.2,1.9,3.9,4.2,5.3,6.7
		c-2.1,0.9-4.4,1.6-6.4,2.7c-1.6,0.8-3.7,1-4.9,2.6C164.6,141.1,162.8,139.2,160.3,138.1z"/>
	<path class="st160" d="M179,142.4c1.2,1.9,1.6,4.1,2,6.3c-2.4,1-4.8,2-7.3,2.9c-2.5,0.9-4.8,2.4-7.5,2.7c0-2.3,0-4.5,0-6.8
		c0.7-0.1,1.4-0.1,2-0.3C171.8,145.6,175.4,144,179,142.4z"/>
	<path class="st160" d="M119.4,172.9c-1.1-1.3-1.8-2.8-2.3-4.5c0.6-1,1.8-1.1,2.8-1.4c4-1.4,7.5-3.8,11.7-4.6c0,0.4,0,0.9,0,1.3
		c-0.4,0.3-0.4,0.6,0,0.9c0.4,1.1,0.8,2.1,1.1,3.2c-1.2,0-2.2,0.5-3.2,0.9C126.2,170.1,122.8,171.5,119.4,172.9z"/>
	<path class="st161" d="M131.6,162.5c-4.2,0.8-7.7,3.2-11.7,4.6c-1,0.3-2.1,0.4-2.8,1.4c-0.9-1.4-1.2-3-1.6-4.6
		c4.7-1.4,9.1-3.7,13.6-5.4c0.8-0.3,1.5-0.6,2.4-0.6C131.6,159.4,131.6,160.9,131.6,162.5z"/>
	<path class="st162" d="M119.4,172.9c3.4-1.4,6.8-2.8,10.1-4.2c1-0.4,2.1-0.9,3.2-0.9c0.6,1.4,2.1,2.1,3,3.2
		c-3.9,1.6-7.7,3.2-11.6,4.9c-0.7,0.3-1.5,0.4-1.6,1.4C121.3,176.1,120.2,174.6,119.4,172.9z"/>
	<path class="st161" d="M179,142.4c-3.6,1.6-7.2,3.2-10.8,4.7c-0.6,0.3-1.3,0.2-2,0.3c-0.2-1.3-0.4-2.6-0.6-3.9
		c1.2-1.6,3.3-1.7,4.9-2.6c2.1-1.1,4.3-1.8,6.4-2.7C177.9,139.6,178.6,140.9,179,142.4z"/>
	<path class="st162" d="M166.2,154.3c2.7-0.3,5-1.7,7.5-2.7c2.4-0.9,4.8-1.9,7.3-2.9c0.3,1.1,0.6,2.1,0.5,3.3
		c-2.7,0.3-5,1.7-7.5,2.7c-2.6,1-4.9,2.5-7.8,2.8C166.2,156.4,166.2,155.3,166.2,154.3z"/>
	<path class="st153" d="M166.2,154.3c0,1.1,0,2.1,0,3.2c0,2.3,0,4.6,0,6.9c-1.1,4.1-3.5,6.8-7.7,7.8c-5.6,0-11.2-0.1-16.7,0
		c-2,0-4-0.2-5.9-0.9c-0.9-1.2-2.4-1.8-3-3.2c-0.4-1.1-0.8-2.1-1.1-3.2c0-0.3,0-0.6,0-0.9c0-0.4,0-0.9,0-1.3c0-1.5,0-3.1,0-4.6
		c0-2.7,0-5.4,0-8.2c0-1.2,0.1-2.4,0.1-3.6c0.1-4.4,3.8-8.4,8.2-8.5c5.9-0.1,11.8-0.1,17.7,0c0.9,0,1.8,0.3,2.7,0.5
		c2.5,1.1,4.3,3,5.4,5.5c0.2,1.3,0.4,2.6,0.6,3.9C166.2,149.7,166.2,152,166.2,154.3z M162.3,150.2c0.2-1.9,0.4-3.7-0.3-5.5
		c-0.6-2.3-2.4-3.3-4.5-3.4c-2.2-0.2-4.5-0.3-6.7,0.1c-3.1-0.4-6.1-0.2-9.2-0.1c-5.1,0.2-6.6,1.9-6.3,7.1c0,1.8,0,3.6,0,5.5
		c0,2.3,0,4.6,0,6.9c-0.3,4.7,0.3,6,3.2,7.3c2.6,0.9,5.2,0.4,7.8,0.3c3.6,0,7.3,0.3,10.9,0c3-0.2,4.7-1.3,5.1-4.1
		C162.8,159.6,162.5,154.9,162.3,150.2z"/>
	<path class="st161" d="M131.6,163.8c0,0.3,0,0.6,0,0.9C131.2,164.4,131.2,164.1,131.6,163.8z"/>
	<path class="st158" d="M150.8,141.4c2.2-0.4,4.5-0.3,6.7-0.1c2.1,0.2,3.9,1.1,4.5,3.4c-1.1-0.1-1.9,0.8-3,0.9
		c-0.7-0.8-1.4-1.3-2.5-0.7c-1,0.6-0.9,1.5-0.6,2.5c-0.9,0-1.7,0.2-2,1.2c-5.4-2.7-8.8-1.7-11.9,3.4c-2.5-0.3-4.3,1.7-6.6,1.8
		c0-1.8,0-3.6,0-5.5c0.6-0.1,1.2,0,1.8-0.2c4-1.7,8.1-3.4,12.1-5.1C149.9,142.7,150.9,142.5,150.8,141.4z"/>
	<path class="st162" d="M146.3,168.3c-2.6,0-5.2,0.5-7.8-0.3c0-2.1,1.9-2.1,3.1-2.7c3-1.5,6.3-2.5,9.7-2.9c2-0.8,3.6-1.9,4.8-3.7
		c0.8,0.1,1.5-0.2,2.2-0.5c4.1-1.7,4.1-1.7,3.9,2.8c-1-0.1-1.9,0-2.9,0.4c-4,1.7-8,3.4-12,5C146.4,166.9,146.2,167.5,146.3,168.3z"
		/>
	<path class="st159" d="M146.3,168.3c-0.1-0.8,0.1-1.4,1-1.8c4-1.6,8-3.3,12-5c0.9-0.4,1.9-0.5,2.9-0.4c0,1.1,0.1,2.1,0.1,3.2
		c-0.4,2.8-2,3.9-5.1,4.1C153.5,168.6,149.9,168.3,146.3,168.3z"/>
	<path class="st160" d="M151.3,162.4c-3.4,0.4-6.6,1.4-9.7,2.9c-1.2,0.6-3.1,0.6-3.1,2.7c-2.9-1.3-3.5-2.6-3.2-7.3
		c2.4-0.4,4.3-2.2,6.8-2.3C144.3,161.7,147.4,163,151.3,162.4z"/>
	<path class="st155" d="M150.8,141.4c0.1,1.1-0.9,1.3-1.6,1.6c-4,1.7-8,3.4-12.1,5.1c-0.5,0.2-1.2,0.2-1.8,0.2
		c-0.3-5.2,1.1-6.9,6.3-7.1C144.7,141.2,147.7,141,150.8,141.4z"/>
	<path class="st160" d="M162.2,164.3c0-1.1-0.1-2.1-0.1-3.2c0.2-4.5,0.2-4.5-3.9-2.8c-0.7,0.3-1.4,0.6-2.2,0.5
		c0.7-1.9,1.1-3.8,0.8-5.8c1.3-2,3.4-2.5,5.5-2.7C162.5,154.9,162.8,159.6,162.2,164.3z"/>
	<path class="st161" d="M142.2,158.4c-2.5,0.1-4.4,1.9-6.8,2.3c0-2.3,0-4.6,0-6.9c2.4-0.1,4.2-2.1,6.6-1.8
		C141.4,154.1,141.6,156.3,142.2,158.4z"/>
	<path class="st161" d="M162.3,150.2c-2.2,0.2-4.2,0.7-5.5,2.7c-0.6-1.7-1.6-3.1-2.9-4.3c0.3-1,1.1-1.2,2-1.2c2.2,1,2.8,0.7,3.1-1.8
		c1.1-0.1,1.9-1,3-0.9C162.8,146.5,162.6,148.3,162.3,150.2z"/>
	<path class="st153" d="M153.9,148.6c1.3,1.2,2.3,2.7,2.9,4.3c0.3,2,0,3.9-0.8,5.8c-1.2,1.8-2.8,2.9-4.8,3.7
		c-3.9,0.6-6.9-0.8-9.1-4.1c-0.6-2.1-0.8-4.2-0.2-6.4C145,146.9,148.5,145.9,153.9,148.6z M153.1,153.8c-0.8-2.5-2.9-3.7-5.1-2.9
		c-2.5,0.9-3.4,3.1-2.3,5.8c1.4,2.1,3.3,2.8,5.3,1.9C152.8,157.8,153.6,156,153.1,153.8z"/>
	<path class="st153" d="M159.1,145.6c-0.3,2.4-0.9,2.8-3.1,1.8c-0.3-1-0.4-1.9,0.6-2.5C157.6,144.3,158.4,144.9,159.1,145.6z"/>
	<path class="st161" d="M145.7,156.7c-1.1-2.7-0.3-4.9,2.3-5.8c2.2-0.8,4.3,0.3,5.1,2.9C150.3,153.9,148,155.4,145.7,156.7z"/>
	<path class="st160" d="M145.7,156.7c2.3-1.4,4.6-2.8,7.4-2.9c0.5,2.2-0.3,3.9-2.1,4.8C149,159.5,147.1,158.8,145.7,156.7z"/>
</g>
</svg>
