<?xml version="1.0" encoding="utf-8"?>
<!-- Generator: Adobe Illustrator 22.1.0, SVG Export Plug-In . SVG Version: 6.00 Build 0)  -->
<svg version="1.1" id="Layer_1" xmlns="http://www.w3.org/2000/svg" xmlns:xlink="http://www.w3.org/1999/xlink" x="0px" y="0px"
	 viewBox="0 0 301.9 296" style="enable-background:new 0 0 301.9 296;" xml:space="preserve">
<style type="text/css">
	.st0{opacity:0.42;fill:url(#SVGID_1_);}
	.st1{fill:url(#SVGID_2_);}
	.st2{fill:#606161;}
	.st3{fill:url(#SVGID_3_);}
	.st4{opacity:0.42;fill:url(#SVGID_4_);}
	.st5{opacity:0.42;fill:url(#SVGID_5_);}
	.st6{fill:#ABABAB;}
	.st7{fill:#F1F2F2;}
	.st8{opacity:0.42;fill:url(#SVGID_6_);}
	.st9{opacity:0.42;fill:url(#SVGID_7_);}
	.st10{opacity:0.42;fill:url(#SVGID_8_);}
	.st11{opacity:0.42;fill:url(#SVGID_9_);}
	.st12{opacity:0.53;fill:#00A79D;}
	.st13{opacity:0.45;fill:#172F4D;}
	.st14{opacity:0.3;fill:#D3D3D3;}
	.st15{opacity:0.28;fill:#00A79D;}
	.st16{opacity:0.4;fill:#D3D3D3;}
	.st17{opacity:0.15;fill:#EE2A7B;}
	.st18{opacity:0.45;fill:#D3D3D3;}
	.st19{fill:#D3D3D3;}
	.st20{fill:#FFFFFF;}
	.st21{opacity:0.15;fill:#00A79D;}
	.st22{fill:#00A79D;}
	.st23{opacity:0.17;fill:#00A79D;}
	.st24{fill:#F9F9FA;}
	.st25{opacity:0.62;fill:#F7F7F7;}
	.st26{fill:#F8FCFD;}
	.st27{opacity:0.68;fill:#F8FCFD;}
	.st28{opacity:0.63;fill:#FFFFFF;}
	.st29{opacity:0.23;fill:#00A79D;}
	.st30{fill:#270E14;}
	.st31{opacity:0.33;fill:#00A79D;}
	.st32{fill:none;}
	.st33{opacity:0.35;fill:#00A79D;}
	.st34{opacity:0.62;fill:#EFF8F8;}
	.st35{fill:#1B75BC;}
	.st36{opacity:0.73;}
	.st37{fill:#66686C;}
	.st38{fill:#424D5C;}
	.st39{fill:#F8F8F8;}
	.st40{fill:#6EC4D6;}
	.st41{fill:#A5DCED;}
	.st42{fill:#EFEEED;}
	.st43{fill:#D7D7D6;}
	.st44{fill:#C8C8C8;}
	.st45{opacity:0.72;fill:#00A79D;}
	.st46{fill:none;stroke:#2B3990;stroke-miterlimit:10;stroke-dasharray:12.3981,12.3981;}
	.st47{fill:none;stroke:#2B3990;stroke-linecap:round;stroke-miterlimit:7;stroke-dasharray:3,0,0,0,0;}
	.st48{fill:#75787C;}
	.st49{fill:#41BEAC;}
	.st50{fill:#151515;}
	.st51{fill:#101010;}
	.st52{fill:#FECF0B;}
	.st53{fill:#232424;}
	.st54{fill:#F59820;}
	.st55{fill:#1A1A1A;}
	.st56{fill:#2D2E2E;}
	.st57{fill:#50C5F0;}
	.st58{fill:#FFD017;}
	.st59{fill:#69C7F1;}
	.st60{fill:#9CCA3F;}
	.st61{fill:#373737;}
	.st62{fill:#EED638;}
	.st63{fill:#F8F8F6;}
	.st64{fill:#FEFEFD;}
	.st65{fill:#F1F0EE;}
	.st66{opacity:0.57;}
	.st67{opacity:0.15;fill:#75787C;}
	.st68{fill:url(#SVGID_10_);}
	.st69{fill:#2E2E80;}
	.st70{fill:#356F83;}
	.st71{fill:#999999;}
	.st72{fill:#93A4A5;}
	.st73{fill:#FFD55E;}
	.st74{fill:#FEFEFE;}
	.st75{fill:#1FB579;}
	.st76{fill:#D86D28;}
	.st77{fill:#D2D1D1;}
	.st78{fill:#FDFEFD;}
	.st79{fill:#45B19B;}
	.st80{fill:#44B39C;}
	.st81{fill:#48B19B;}
	.st82{fill:#46AD97;}
	.st83{fill:#EAE9E8;}
	.st84{fill:#E9E9E8;}
	.st85{fill:#344E5D;}
	.st86{fill:#DF7B3E;}
	.st87{fill:#ECC64B;}
	.st88{fill:#EEC74B;}
	.st89{fill:#EFC84B;}
	.st90{fill:#4B626F;}
	.st91{fill:#E5C048;}
	.st92{fill:#4B606E;}
	.st93{fill:#E8EBEB;}
	.st94{fill:#FACD65;}
	.st95{fill:#364F5D;}
	.st96{fill:#4D616F;}
	.st97{fill:#7EC9CA;}
	.st98{fill:#E27C3D;}
	.st99{fill:#4B6370;}
	.st100{fill:#E27C3C;}
	.st101{fill:#E6E8E8;}
	.st102{fill:#E7E8E8;}
	.st103{fill:#E17B3D;}
	.st104{fill:#E27F42;}
	.st105{opacity:0.42;fill:url(#SVGID_11_);}
	.st106{opacity:0.7;}
	.st107{opacity:0.42;fill:url(#SVGID_12_);}
	.st108{opacity:0.42;fill:#FFFFFF;}
	.st109{opacity:0.47;fill:#7A8483;}
	.st110{opacity:0.21;fill:#FEFFFF;}
	.st111{fill:#393E46;}
	.st112{fill:#DAD8D5;}
	.st113{fill:#F2F2F2;}
	.st114{fill:#EF7245;}
	.st115{fill:#51C4D0;}
	.st116{fill:#FAFDFF;}
	.st117{fill:#E5B54E;}
	.st118{fill:#FDFEFC;}
	.st119{fill:#F8CF1E;}
	.st120{fill:#F8CF1B;}
	.st121{fill:#FDE0C3;}
	.st122{fill:#28434C;}
	.st123{fill:#79C1B0;}
	.st124{fill:#F0E65E;}
	.st125{fill:#DA615A;}
	.st126{fill:#F7CE18;}
	.st127{fill:#F8CB10;}
	.st128{fill:#C09945;}
	.st129{fill:#E8B84F;}
	.st130{fill:#CCCBC9;}
	.st131{fill:#415461;}
	.st132{fill:#F36F42;}
	.st133{fill:#FFFEFF;stroke:#FFFFFF;stroke-miterlimit:10;}
	.st134{fill:#F4F1EE;}
	.st135{fill:none;stroke:#FFFFFF;stroke-miterlimit:10;}
	.st136{fill:#F79B37;}
	.st137{fill:#F3C241;}
	.st138{fill:#BBC1C5;}
	.st139{fill:#FCFCFD;}
	.st140{fill:none;stroke:#2B3990;stroke-miterlimit:10;stroke-dasharray:11.9667,11.9667;}
	.st141{fill:#CECECE;}
	.st142{fill:#CACACA;}
	.st143{fill:#F9F9FA;stroke:#F7F9F9;stroke-miterlimit:10;}
	.st144{fill:#F37758;}
	.st145{fill:#5D6571;}
	.st146{fill:#FFFFFF;stroke:#424D5C;stroke-miterlimit:10;}
	.st147{fill:#619D9D;}
	.st148{fill:#5E9998;}
	.st149{fill:url(#SVGID_13_);}
	.st150{opacity:0.1;fill:#606161;}
	.st151{opacity:0.68;fill:#FFFFFF;}
	.st152{fill:#1F4D8E;}
	.st153{fill:#FEF7F5;}
	.st154{fill:#ED5940;}
	.st155{fill:#9C479B;}
	.st156{fill:#794D9F;}
	.st157{fill:#EC3F56;}
	.st158{fill:#AF4298;}
	.st159{fill:#E4376A;}
	.st160{fill:#D63981;}
	.st161{fill:#C73D94;}
	.st162{fill:#DF3874;}
	.st163{fill:#18AD4C;}
	.st164{opacity:0.68;fill:#FFFFFF;stroke:#727373;stroke-miterlimit:7;}
</style>
<g>
	<g>
		<rect x="126.4" y="130.2" class="st20" width="33.5" height="27.1"/>
		<path class="st73" d="M146.7,85.6c34.6,0.2,62.6,28.6,62.4,63.3c-0.3,34.4-28.5,62.3-63,62.1c-34.6-0.2-62.6-28.6-62.4-63.3
			C84,113.3,112.2,85.4,146.7,85.6z M135.5,186.4c-1.6,0.4-3.5-0.7-5.4,1.1c11,0,21.5,0,33,0c-2.3-1.6-4.1-0.9-5.8-1.1
			c-0.7-3.5-1.4-7.1-2.1-10.6c7.9-0.1,15.9-0.1,23.8-0.3c6.2-0.1,6.8-0.9,5.9-7.3c0.9-16.1,0.2-32.2,0.4-48.4c0-2.2-1.3-3.1-3.5-3.1
			c-23.6,0-47.3,0-70.9,0c-2.2,0-3.5,0.8-3.5,3.1c0.2,16.1-0.6,32.3,0.4,48.4c-0.9,6.4-0.3,7.2,6,7.3c7.9,0.1,15.9,0.2,23.8,0.3
			C136.9,179.3,136.2,182.8,135.5,186.4z"/>
		<path class="st111" d="M107.8,168.2c-0.9-16.1-0.2-32.2-0.4-48.4c0-2.2,1.3-3.1,3.5-3.1c23.6,0,47.3,0,70.9,0
			c2.2,0,3.5,0.8,3.5,3.1c-0.2,16.1,0.6,32.3-0.4,48.4C159.3,168.2,133.5,168.2,107.8,168.2z M146.4,164.2c10.3,0,20.6-0.1,30.8,0.1
			c3,0,4.3-0.5,4.3-4c-0.2-11.9-0.2-23.8,0-35.7c0-3-0.7-3.9-3.8-3.9c-20.9,0.1-41.8,0.1-62.7,0c-3.1,0-3.8,1-3.8,3.9
			c0.2,11.9,0.2,23.8,0,35.7c-0.1,3.5,1.3,4,4.3,3.9C125.8,164.1,136.1,164.2,146.4,164.2z"/>
		<path class="st20" d="M107.8,168.2c25.7,0,51.4,0,77.1,0c0.9,6.4,0.3,7.2-6,7.3c-7.9,0.1-15.9,0.2-23.8,0.3
			c-5.9-1.6-11.8-1.6-17.7,0c-7.9-0.1-15.9-0.1-23.8-0.3C107.6,175.4,107,174.6,107.8,168.2z"/>
		<path class="st112" d="M137.6,175.8c5.9-1.6,11.8-1.6,17.7,0c0.7,3.5,1.4,7.1,2.1,10.6c-7.3,0-14.6,0-21.8,0
			C136.2,182.8,136.9,179.3,137.6,175.8z"/>
		<path class="st20" d="M135.5,186.4c7.3,0,14.6,0,21.8,0c1.7,0.3,3.5-0.4,5.8,1.1c-11.4,0-22,0-33,0
			C132,185.7,133.9,186.7,135.5,186.4z"/>
		<path class="st113" d="M146.4,164.2c-10.3,0-20.6-0.1-30.8,0.1c-3,0-4.4-0.4-4.3-3.9c0.2-11.9,0.2-23.8,0-35.7
			c0-2.9,0.6-3.9,3.8-3.9c20.9,0.1,41.8,0.1,62.7,0c3.1,0,3.8,0.9,3.8,3.9c-0.2,11.9-0.2,23.8,0,35.7c0.1,3.5-1.3,4-4.3,4
			C167,164.1,156.7,164.2,146.4,164.2z M144.6,144.4c-0.8,4.6,2.3,6.3,5.9,6.4c3.6,0.1,6.2-2.3,6.1-6.1c-0.1-3.8-1.8-6.5-6.3-6.1
			c0.5-3.6-0.6-5-4.6-5c-4.7-0.1-7,1-6.1,6.1c0.3,1.6,0,3.2-0.1,4.8c-2.6-1-2.3-4.3-4.8-5.7c-2.3,3.9-4.5,7.8-6.9,12.1
			c5.1,0,9.5,0,13.8,0c0.3-2.6-2.6-3.9-2.1-6.4C141.2,144.4,142.9,144.4,144.6,144.4z M113.3,127.4c-0.1,10.2-0.1,20.5-0.2,30.7
			c0,2.5,0.4,4,3.4,4c2.9,0,3.5-1.3,3.5-3.9c-0.1-10.2-0.1-20.5-0.2-30.7c0-0.9,0-1.8-0.1-2.7c1.8,0.1,4.3-0.9,5.1,0.5
			c2.1,3.3,5,2.3,7.8,2.4c8.8,0.1,17.6,0.2,26.4,0c3.7-0.1,5.2,0.8,5,4.9c-0.3,8,0.1,16-0.2,24c-0.2,4.7,0.6,7.3,6.1,5.7
			c1.8-0.5,3.9-0.2,5.8-0.1c3.1,0.3,4-1.1,3.9-4c-0.2-3.9,0-7.8,0-11.7c0-0.7,0-1.3,0-2c0-0.6-0.1-1.1-0.1-1.7
			c0-5.1-0.1-10.2-0.1-15.2c0-0.8,0-1.5,0-2.3c0.1-2.6-1.8-2.3-3.3-2.3c-19.8,0-39.7,0-59.5,0c-1.6,0-3.5-0.3-3.4,2.3
			C113.3,125.8,113.3,126.6,113.3,127.4z"/>
		<path class="st112" d="M179.7,146.3c0,3.9-0.1,7.8,0,11.7c0.1,2.9-0.8,4.3-3.9,4c-1.9-0.2-4-0.5-5.8,0.1c-5.5,1.6-6.3-1-6.1-5.7
			c0.3-8-0.1-16,0.2-24c0.2-4-1.3-5-5-4.9c-8.8,0.2-17.6,0.1-26.4,0c-2.7,0-5.7,1-7.8-2.4c-0.8-1.3-3.4-0.4-5.1-0.5
			c-2.2,0.1-4.3,0.2-6.5,0.2c-0.1-2.6,1.8-2.3,3.4-2.3c19.8,0,39.7,0,59.5,0c1.6,0,3.5-0.3,3.3,2.3c-3.4,0-6.8-0.1-10.3-0.1
			c-2.3,0-3.2,0.8-1.3,2.8c0,2.1,0,4.2,0,6.3c0,1.2,0.4,2,1.8,2.5c6,1.8,9-0.3,9-6.4c0-0.8,0-1.6,0-2.4c0.2-0.3,0.4-0.4,0.8-0.3
			c0,5.1,0.1,10.2,0.1,15.2c-3.5-0.1-7-0.1-10.5-0.2c-1.9,0-3,0.5-1.1,2.3c0,3.4,0.2,6.8-0.1,10.1c-0.5,4.8,2.6,4.1,5.6,4.2
			c3.1,0.1,5.7,0.2,5.4-4.4C178.7,152,177.7,148.9,179.7,146.3z"/>
		<path class="st20" d="M179.7,146.3c-2,2.6-1.1,5.6-0.9,8.4c0.3,4.5-2.3,4.5-5.4,4.4c-2.9-0.1-6,0.6-5.6-4.2
			c0.3-3.4,0.1-6.8,0.1-10.1c3.9-0.2,7.8-0.3,11.7-0.5C179.7,145,179.7,145.6,179.7,146.3z"/>
		<path class="st112" d="M119.8,127.5c0,10.2,0,20.5,0.2,30.7c0,2.6-0.6,3.9-3.5,3.9c-3,0-3.4-1.5-3.4-4c0.1-10.2,0.2-20.5,0.2-30.7
			c0.3,0,0.6,0.1,0.8,0.4c0,5.3,0,10.7,0,16c0,1.9,0,3.7,2.7,3.5c2.5-0.1,2.2-1.9,2.2-3.5c0-5.3,0-10.7,0-16
			C119.2,127.6,119.5,127.5,119.8,127.5z"/>
		<path class="st113" d="M168,127.7c3.6,0,7.2,0,10.8,0c0,0.8,0,1.6,0,2.4c0,6.1-3,8.2-9,6.4c-1.4-0.4-1.7-1.2-1.8-2.5
			C168,131.9,168,129.8,168,127.7z"/>
		<path class="st113" d="M114.1,127.7c1.6,0,3.3,0,4.9,0c0,5.3,0,10.7,0,16c0,1.6,0.2,3.4-2.2,3.5c-2.7,0.1-2.7-1.6-2.7-3.5
			C114.1,138.4,114.1,133.1,114.1,127.7z"/>
		<polygon class="st114" points="127.7,150.8 135.4,137.1 143.3,150.8 		"/>
		<g>
			<circle class="st111" cx="149.8" cy="145" r="6"/>
			<rect x="139.6" y="133.3" class="st115" width="10.8" height="10.8"/>
			<path class="st116" d="M150.4,144.1h-6.6c0.1-0.6,0.4-2.1,1.8-3.4c1.9-1.9,4.4-1.7,4.8-1.7C150.4,140.7,150.4,142.4,150.4,144.1z
				"/>
		</g>
		<polygon class="st112" points="164,162.6 179.7,162.6 179.7,124 164,124 		"/>
		<polygon class="st112" points="113.3,125.1 113.3,128.1 119.8,128.1 119.8,124.1 		"/>
		<path class="st20" d="M174.9,138.7h-5.5c-1,0-1.9-0.8-1.9-1.9V130c0-1,0.8-1.9,1.9-1.9h5.5c1,0,1.9,0.8,1.9,1.9v6.9
			C176.8,137.9,175.9,138.7,174.9,138.7z"/>
		<path class="st20" d="M174.9,160.1h-5.5c-1.1,0-1.9-0.9-1.9-1.9v-13.3c0-1.1,0.9-1.9,1.9-1.9h5.5c1.1,0,1.9,0.9,1.9,1.9v13.3
			C176.8,159.2,175.9,160.1,174.9,160.1z"/>
		<rect x="167.5" y="128.1" class="st111" width="9.3" height="2.3"/>
		<rect x="167.5" y="142.6" class="st111" width="9.3" height="2.3"/>
		<rect x="114" y="127.4" class="st111" width="4.9" height="2.3"/>
	</g>
	<circle class="st47" cx="146.8" cy="148" r="69.2"/>
</g>
</svg>
