<?xml version="1.0" encoding="utf-8"?>
<!-- Generator: Adobe Illustrator 22.1.0, SVG Export Plug-In . SVG Version: 6.00 Build 0)  -->
<svg version="1.1" id="Layer_1" xmlns="http://www.w3.org/2000/svg" xmlns:xlink="http://www.w3.org/1999/xlink" x="0px" y="0px"
	 viewBox="0 0 301.9 296" style="enable-background:new 0 0 301.9 296;" xml:space="preserve">
<style type="text/css">
	.st0{opacity:0.42;fill:url(#SVGID_1_);}
	.st1{fill:url(#SVGID_2_);}
	.st2{fill:#606161;}
	.st3{fill:url(#SVGID_3_);}
	.st4{opacity:0.42;fill:url(#SVGID_4_);}
	.st5{opacity:0.42;fill:url(#SVGID_5_);}
	.st6{fill:#ABABAB;}
	.st7{fill:#F1F2F2;}
	.st8{opacity:0.42;fill:url(#SVGID_6_);}
	.st9{opacity:0.42;fill:url(#SVGID_7_);}
	.st10{opacity:0.42;fill:url(#SVGID_8_);}
	.st11{opacity:0.42;fill:url(#SVGID_9_);}
	.st12{opacity:0.53;fill:#00A79D;}
	.st13{opacity:0.45;fill:#172F4D;}
	.st14{opacity:0.3;fill:#D3D3D3;}
	.st15{opacity:0.28;fill:#00A79D;}
	.st16{opacity:0.4;fill:#D3D3D3;}
	.st17{opacity:0.15;fill:#EE2A7B;}
	.st18{opacity:0.45;fill:#D3D3D3;}
	.st19{fill:#D3D3D3;}
	.st20{fill:#FFFFFF;}
	.st21{opacity:0.15;fill:#00A79D;}
	.st22{fill:#00A79D;}
	.st23{opacity:0.17;fill:#00A79D;}
	.st24{fill:#F9F9FA;}
	.st25{opacity:0.62;fill:#F7F7F7;}
	.st26{fill:#F8FCFD;}
	.st27{opacity:0.68;fill:#F8FCFD;}
	.st28{opacity:0.63;fill:#FFFFFF;}
	.st29{opacity:0.23;fill:#00A79D;}
	.st30{fill:#270E14;}
	.st31{opacity:0.33;fill:#00A79D;}
	.st32{fill:none;}
	.st33{opacity:0.35;fill:#00A79D;}
	.st34{opacity:0.62;fill:#EFF8F8;}
	.st35{fill:#1B75BC;}
	.st36{opacity:0.73;}
	.st37{fill:#66686C;}
	.st38{fill:#424D5C;}
	.st39{fill:#F8F8F8;}
	.st40{fill:#6EC4D6;}
	.st41{fill:#A5DCED;}
	.st42{fill:#EFEEED;}
	.st43{fill:#D7D7D6;}
	.st44{fill:#C8C8C8;}
	.st45{opacity:0.72;fill:#00A79D;}
	.st46{fill:none;stroke:#2B3990;stroke-miterlimit:10;stroke-dasharray:12.3981,12.3981;}
	.st47{fill:none;stroke:#2B3990;stroke-linecap:round;stroke-miterlimit:7;stroke-dasharray:3,0,0,0,0;}
	.st48{fill:#75787C;}
	.st49{fill:#41BEAC;}
	.st50{fill:#151515;}
	.st51{fill:#101010;}
	.st52{fill:#FECF0B;}
	.st53{fill:#232424;}
	.st54{fill:#F59820;}
	.st55{fill:#1A1A1A;}
	.st56{fill:#2D2E2E;}
	.st57{fill:#50C5F0;}
	.st58{fill:#FFD017;}
	.st59{fill:#69C7F1;}
	.st60{fill:#9CCA3F;}
	.st61{fill:#373737;}
	.st62{fill:#EED638;}
	.st63{fill:#F8F8F6;}
	.st64{fill:#FEFEFD;}
	.st65{fill:#F1F0EE;}
	.st66{opacity:0.57;}
	.st67{opacity:0.15;fill:#75787C;}
	.st68{fill:url(#SVGID_10_);}
	.st69{fill:#2E2E80;}
	.st70{fill:#356F83;}
	.st71{fill:#999999;}
	.st72{fill:#93A4A5;}
	.st73{fill:#FFD55E;}
	.st74{fill:#FEFEFE;}
	.st75{fill:#1FB579;}
	.st76{fill:#D86D28;}
	.st77{fill:#D2D1D1;}
	.st78{fill:#FDFEFD;}
	.st79{fill:#45B19B;}
	.st80{fill:#44B39C;}
	.st81{fill:#48B19B;}
	.st82{fill:#46AD97;}
	.st83{fill:#EAE9E8;}
	.st84{fill:#E9E9E8;}
	.st85{fill:#344E5D;}
	.st86{fill:#DF7B3E;}
	.st87{fill:#ECC64B;}
	.st88{fill:#EEC74B;}
	.st89{fill:#EFC84B;}
	.st90{fill:#4B626F;}
	.st91{fill:#E5C048;}
	.st92{fill:#4B606E;}
	.st93{fill:#E8EBEB;}
	.st94{fill:#FACD65;}
	.st95{fill:#364F5D;}
	.st96{fill:#4D616F;}
	.st97{fill:#7EC9CA;}
	.st98{fill:#E27C3D;}
	.st99{fill:#4B6370;}
	.st100{fill:#E27C3C;}
	.st101{fill:#E6E8E8;}
	.st102{fill:#E7E8E8;}
	.st103{fill:#E17B3D;}
	.st104{fill:#E27F42;}
	.st105{opacity:0.42;fill:url(#SVGID_11_);}
	.st106{opacity:0.7;}
	.st107{opacity:0.42;fill:url(#SVGID_12_);}
	.st108{opacity:0.42;fill:#FFFFFF;}
	.st109{opacity:0.47;fill:#7A8483;}
	.st110{opacity:0.21;fill:#FEFFFF;}
	.st111{fill:#393E46;}
	.st112{fill:#DAD8D5;}
	.st113{fill:#F2F2F2;}
	.st114{fill:#EF7245;}
	.st115{fill:#51C4D0;}
	.st116{fill:#FAFDFF;}
	.st117{fill:#E5B54E;}
	.st118{fill:#FDFEFC;}
	.st119{fill:#F8CF1E;}
	.st120{fill:#F8CF1B;}
	.st121{fill:#FDE0C3;}
	.st122{fill:#28434C;}
	.st123{fill:#79C1B0;}
	.st124{fill:#F0E65E;}
	.st125{fill:#DA615A;}
	.st126{fill:#F7CE18;}
	.st127{fill:#F8CB10;}
	.st128{fill:#C09945;}
	.st129{fill:#E8B84F;}
	.st130{fill:#CCCBC9;}
	.st131{fill:#415461;}
	.st132{fill:#F36F42;}
	.st133{fill:#FFFEFF;stroke:#FFFFFF;stroke-miterlimit:10;}
	.st134{fill:#F4F1EE;}
	.st135{fill:none;stroke:#FFFFFF;stroke-miterlimit:10;}
	.st136{fill:#F79B37;}
	.st137{fill:#F3C241;}
	.st138{fill:#BBC1C5;}
	.st139{fill:#FCFCFD;}
	.st140{fill:none;stroke:#2B3990;stroke-miterlimit:10;stroke-dasharray:11.9667,11.9667;}
	.st141{fill:#CECECE;}
	.st142{fill:#CACACA;}
	.st143{fill:#F9F9FA;stroke:#F7F9F9;stroke-miterlimit:10;}
	.st144{fill:#F37758;}
	.st145{fill:#5D6571;}
	.st146{fill:#FFFFFF;stroke:#424D5C;stroke-miterlimit:10;}
	.st147{fill:#619D9D;}
	.st148{fill:#5E9998;}
	.st149{fill:url(#SVGID_13_);}
	.st150{opacity:0.1;fill:#606161;}
	.st151{opacity:0.68;fill:#FFFFFF;}
	.st152{fill:#1F4D8E;}
	.st153{fill:#FEF7F5;}
	.st154{fill:#ED5940;}
	.st155{fill:#9C479B;}
	.st156{fill:#794D9F;}
	.st157{fill:#EC3F56;}
	.st158{fill:#AF4298;}
	.st159{fill:#E4376A;}
	.st160{fill:#D63981;}
	.st161{fill:#C73D94;}
	.st162{fill:#DF3874;}
	.st163{fill:#18AD4C;}
	.st164{opacity:0.68;fill:#FFFFFF;stroke:#727373;stroke-miterlimit:7;}
</style>
<g>
	<circle class="st38" cx="145.2" cy="154" r="64.5"/>
	<path class="st20" d="M172.7,169.6c0,1.8-0.2,3.7,0,5.5c0.3,2.8-0.8,3.7-3.6,3.7c-9.1-0.1-18.2,0-27.3-0.1c-2,0-3.5,0.5-4.9,1.8
		c-3.3,3-6.8,6-10.2,8.9c-0.6,0.6-1.3,1.3-2.3,0.7c-0.8-0.4-0.7-1.3-0.7-2.1c0-2.4-0.1-4.8,0-7.2c0.1-1.6-0.5-2.2-2.1-2.2
		c-3.3,0.1-6.5,0-9.8,0c-2.1,0.1-2.9-0.8-2.9-2.9c0-13.3,0-26.7,0-40c0-1.9,0.7-2.8,2.7-2.8c2.1,0,4.2-0.1,6.3-0.1
		c1.1,0.1,2.3,0.2,3.4,0.2c15.7,0,31.4,0,47.1,0c4.2,0,4.2,0,4.2,4C172.6,147.9,172.7,158.7,172.7,169.6z M140.9,154
		c-5.9,0-11.9,0-17.8,0c-0.9,0-2.1-0.1-2.1,1.3c-0.1,1.6,1.1,1.5,2.2,1.5c11.7,0,23.4,0,35.1,0c1,0,2.3,0.2,2.3-1.4
		c0-1.6-1.3-1.4-2.3-1.4C152.4,154,146.6,154,140.9,154z M140.6,147.7c5.7,0,11.5,0,17.2,0c0.9,0,2.4,0.5,2.5-1.1
		c0.1-1.7-1.4-1.2-2.4-1.2c-11.5,0-23,0-34.5,0c-0.9,0-2.5-0.5-2.5,1.1c0,1.8,1.6,1.2,2.6,1.2C129.3,147.8,135,147.7,140.6,147.7z
		 M149.2,164.4c3.1,0,6.1,0,9.2,0c0.9,0,2,0.1,2.1-1.3c0.1-1.4-0.9-1.5-2-1.5c-6.1,0-12.3,0-18.4,0c-1,0-2,0.1-2,1.5
		c0.1,1.4,1.2,1.3,2.1,1.3C143.2,164.4,146.2,164.4,149.2,164.4z M127.3,164.4c1.7,0,3.4,0,5.2,0c0.8,0,1.5-0.3,1.6-1.3
		c0-1-0.4-1.5-1.3-1.5c-3.4,0-6.9,0-10.3,0c-0.9,0-1.4,0.5-1.4,1.4c0,1,0.6,1.3,1.5,1.3C124,164.4,125.6,164.4,127.3,164.4z"/>
	<path class="st94" d="M172.7,169.6c0-10.8-0.1-21.6-0.1-32.5c0-4,0-4-4.2-4c-15.7,0-31.4,0-47.1,0c-1.1,0-2.3-0.1-3.4-0.2
		c0-0.4,0-0.8,0-1.2c0.2-2.4-1.1-5.6,0.6-7.2c1.6-1.5,4.8-0.5,7.2-0.5c17.5,0,34.9,0,52.4-0.1c2.7,0,3.4,0.8,3.3,3.4
		c-0.1,13-0.1,26.1,0,39.1c0,2.4-0.6,3.3-3.1,3.1C176.5,169.4,174.6,169.6,172.7,169.6z"/>
	<path class="st147" d="M140.9,154c5.8,0,11.5,0,17.3,0c1,0,2.3-0.2,2.3,1.4c0,1.6-1.2,1.4-2.3,1.4c-11.7,0-23.4,0-35.1,0
		c-1.1,0-2.3,0.1-2.2-1.5c0.1-1.4,1.2-1.3,2.1-1.3C129,154,134.9,154,140.9,154z"/>
	<path class="st148" d="M140.6,147.7c-5.6,0-11.3,0-16.9,0c-1,0-2.7,0.5-2.6-1.2c0-1.6,1.6-1.1,2.5-1.1c11.5,0,23,0,34.5,0
		c0.9,0,2.4-0.5,2.4,1.2c-0.1,1.6-1.6,1.1-2.5,1.1C152.1,147.7,146.4,147.7,140.6,147.7z"/>
	<path class="st147" d="M149.2,164.4c-3,0-6,0-8.9,0c-0.9,0-2,0.1-2.1-1.3c-0.1-1.4,1-1.5,2-1.5c6.1,0,12.3,0,18.4,0
		c1,0,2,0.1,2,1.5c-0.1,1.4-1.2,1.3-2.1,1.3C155.3,164.4,152.2,164.4,149.2,164.4z"/>
	<path class="st147" d="M127.3,164.4c-1.6,0-3.3,0-4.9,0c-0.9,0-1.5-0.4-1.5-1.3c0-1,0.5-1.4,1.4-1.4c3.4,0,6.9,0,10.3,0
		c0.9,0,1.4,0.5,1.3,1.5c0,1-0.7,1.3-1.6,1.3C130.7,164.4,129,164.4,127.3,164.4z"/>
	<circle class="st47" cx="145.2" cy="153.8" r="69.2"/>
</g>
</svg>
