<?xml version="1.0" encoding="utf-8"?>
<!-- Generator: Adobe Illustrator 22.1.0, SVG Export Plug-In . SVG Version: 6.00 Build 0)  -->
<svg version="1.1" id="Layer_1" xmlns="http://www.w3.org/2000/svg" xmlns:xlink="http://www.w3.org/1999/xlink" x="0px" y="0px"
	 viewBox="0 0 301.9 296" style="enable-background:new 0 0 301.9 296;" xml:space="preserve">
<style type="text/css">
	.st0{opacity:0.42;fill:url(#SVGID_1_);}
	.st1{fill:url(#SVGID_2_);}
	.st2{fill:#606161;}
	.st3{fill:url(#SVGID_3_);}
	.st4{opacity:0.42;fill:url(#SVGID_4_);}
	.st5{opacity:0.42;fill:url(#SVGID_5_);}
	.st6{fill:#ABABAB;}
	.st7{fill:#F1F2F2;}
	.st8{opacity:0.42;fill:url(#SVGID_6_);}
	.st9{opacity:0.42;fill:url(#SVGID_7_);}
	.st10{opacity:0.42;fill:url(#SVGID_8_);}
	.st11{opacity:0.42;fill:url(#SVGID_9_);}
	.st12{opacity:0.53;fill:#00A79D;}
	.st13{opacity:0.45;fill:#172F4D;}
	.st14{opacity:0.3;fill:#D3D3D3;}
	.st15{opacity:0.28;fill:#00A79D;}
	.st16{opacity:0.4;fill:#D3D3D3;}
	.st17{opacity:0.15;fill:#EE2A7B;}
	.st18{opacity:0.45;fill:#D3D3D3;}
	.st19{fill:#D3D3D3;}
	.st20{fill:#FFFFFF;}
	.st21{opacity:0.15;fill:#00A79D;}
	.st22{fill:#00A79D;}
	.st23{opacity:0.17;fill:#00A79D;}
	.st24{fill:#F9F9FA;}
	.st25{opacity:0.62;fill:#F7F7F7;}
	.st26{fill:#F8FCFD;}
	.st27{opacity:0.68;fill:#F8FCFD;}
	.st28{opacity:0.63;fill:#FFFFFF;}
	.st29{opacity:0.23;fill:#00A79D;}
	.st30{fill:#270E14;}
	.st31{opacity:0.33;fill:#00A79D;}
	.st32{fill:none;}
	.st33{opacity:0.35;fill:#00A79D;}
	.st34{opacity:0.62;fill:#EFF8F8;}
	.st35{fill:#1B75BC;}
	.st36{opacity:0.73;}
	.st37{fill:#66686C;}
	.st38{fill:#424D5C;}
	.st39{fill:#F8F8F8;}
	.st40{fill:#6EC4D6;}
	.st41{fill:#A5DCED;}
	.st42{fill:#EFEEED;}
	.st43{fill:#D7D7D6;}
	.st44{fill:#C8C8C8;}
	.st45{opacity:0.72;fill:#00A79D;}
	.st46{fill:none;stroke:#2B3990;stroke-miterlimit:10;stroke-dasharray:12.3981,12.3981;}
	.st47{fill:none;stroke:#2B3990;stroke-linecap:round;stroke-miterlimit:7;stroke-dasharray:3,0,0,0,0;}
	.st48{fill:#75787C;}
	.st49{fill:#41BEAC;}
	.st50{fill:#151515;}
	.st51{fill:#101010;}
	.st52{fill:#FECF0B;}
	.st53{fill:#232424;}
	.st54{fill:#F59820;}
	.st55{fill:#1A1A1A;}
	.st56{fill:#2D2E2E;}
	.st57{fill:#50C5F0;}
	.st58{fill:#FFD017;}
	.st59{fill:#69C7F1;}
	.st60{fill:#9CCA3F;}
	.st61{fill:#373737;}
	.st62{fill:#EED638;}
	.st63{fill:#F8F8F6;}
	.st64{fill:#FEFEFD;}
	.st65{fill:#F1F0EE;}
	.st66{opacity:0.57;}
	.st67{opacity:0.15;fill:#75787C;}
	.st68{fill:url(#SVGID_10_);}
	.st69{fill:#2E2E80;}
	.st70{fill:#356F83;}
	.st71{fill:#999999;}
	.st72{fill:#93A4A5;}
	.st73{fill:#FFD55E;}
	.st74{fill:#FEFEFE;}
	.st75{fill:#1FB579;}
	.st76{fill:#D86D28;}
	.st77{fill:#D2D1D1;}
	.st78{fill:#FDFEFD;}
	.st79{fill:#45B19B;}
	.st80{fill:#44B39C;}
	.st81{fill:#48B19B;}
	.st82{fill:#46AD97;}
	.st83{fill:#EAE9E8;}
	.st84{fill:#E9E9E8;}
	.st85{fill:#344E5D;}
	.st86{fill:#DF7B3E;}
	.st87{fill:#ECC64B;}
	.st88{fill:#EEC74B;}
	.st89{fill:#EFC84B;}
	.st90{fill:#4B626F;}
	.st91{fill:#E5C048;}
	.st92{fill:#4B606E;}
	.st93{fill:#E8EBEB;}
	.st94{fill:#FACD65;}
	.st95{fill:#364F5D;}
	.st96{fill:#4D616F;}
	.st97{fill:#7EC9CA;}
	.st98{fill:#E27C3D;}
	.st99{fill:#4B6370;}
	.st100{fill:#E27C3C;}
	.st101{fill:#E6E8E8;}
	.st102{fill:#E7E8E8;}
	.st103{fill:#E17B3D;}
	.st104{fill:#E27F42;}
	.st105{opacity:0.42;fill:url(#SVGID_11_);}
	.st106{opacity:0.7;}
	.st107{opacity:0.42;fill:url(#SVGID_12_);}
	.st108{opacity:0.42;fill:#FFFFFF;}
	.st109{opacity:0.47;fill:#7A8483;}
	.st110{opacity:0.21;fill:#FEFFFF;}
	.st111{fill:#393E46;}
	.st112{fill:#DAD8D5;}
	.st113{fill:#F2F2F2;}
	.st114{fill:#EF7245;}
	.st115{fill:#51C4D0;}
	.st116{fill:#FAFDFF;}
	.st117{fill:#E5B54E;}
	.st118{fill:#FDFEFC;}
	.st119{fill:#F8CF1E;}
	.st120{fill:#F8CF1B;}
	.st121{fill:#FDE0C3;}
	.st122{fill:#28434C;}
	.st123{fill:#79C1B0;}
	.st124{fill:#F0E65E;}
	.st125{fill:#DA615A;}
	.st126{fill:#F7CE18;}
	.st127{fill:#F8CB10;}
	.st128{fill:#C09945;}
	.st129{fill:#E8B84F;}
	.st130{fill:#CCCBC9;}
	.st131{fill:#415461;}
	.st132{fill:#F36F42;}
	.st133{fill:#FFFEFF;stroke:#FFFFFF;stroke-miterlimit:10;}
	.st134{fill:#F4F1EE;}
	.st135{fill:none;stroke:#FFFFFF;stroke-miterlimit:10;}
	.st136{fill:#F79B37;}
	.st137{fill:#F3C241;}
	.st138{fill:#BBC1C5;}
	.st139{fill:#FCFCFD;}
	.st140{fill:none;stroke:#2B3990;stroke-miterlimit:10;stroke-dasharray:11.9667,11.9667;}
	.st141{fill:#CECECE;}
	.st142{fill:#CACACA;}
	.st143{fill:#F9F9FA;stroke:#F7F9F9;stroke-miterlimit:10;}
	.st144{fill:#F37758;}
	.st145{fill:#5D6571;}
	.st146{fill:#FFFFFF;stroke:#424D5C;stroke-miterlimit:10;}
	.st147{fill:#619D9D;}
	.st148{fill:#5E9998;}
	.st149{fill:url(#SVGID_13_);}
	.st150{opacity:0.1;fill:#606161;}
	.st151{opacity:0.68;fill:#FFFFFF;}
	.st152{fill:#1F4D8E;}
	.st153{fill:#FEF7F5;}
	.st154{fill:#ED5940;}
	.st155{fill:#9C479B;}
	.st156{fill:#794D9F;}
	.st157{fill:#EC3F56;}
	.st158{fill:#AF4298;}
	.st159{fill:#E4376A;}
	.st160{fill:#D63981;}
	.st161{fill:#C73D94;}
	.st162{fill:#DF3874;}
	.st163{fill:#18AD4C;}
	.st164{opacity:0.68;fill:#FFFFFF;stroke:#727373;stroke-miterlimit:7;}
</style>
<g>
	<g>
		<path class="st94" d="M151,86.6c35,0,63.4,28.3,63.4,63.4c0,35.2-28.5,63.6-64,63.4c-35-0.2-62.9-28.8-62.9-63.4
			C87.5,114.8,116.3,86.4,151,86.6z M166.8,117.3c-0.1-0.8-0.6-1-1.3-1c-0.8,0-1.5,0-2.3,0c-0.7,0-1.2,0.2-1.3,1c-1,0-2,0-3,0
			c-0.1-1.3-0.7-2.3-1.5-3.2c-2.9-3.1-8.4-3.7-12.2-1.4c-1.7,1.1-3,2.4-3.1,4.6c-0.7,0-1.3,0-2,0c-0.6-1.1-4.2-1.5-4.9-0.4
			c-0.1,0.1-0.1,0.3-0.1,0.4c-0.7,0-1.4,0-2.1,0c-5.7,0-10.5,4.1-11.5,9.7c-0.5,2.6-0.1,5.3-0.2,8c0,1.6,0,3.2,0,4.7
			c0,6.4,0,12.8,0,19.2c-2.9,0-3.9,1-3.9,3.9c0,3.9,0,7.9,0,11.8c0,1.2,0.5,2.1,1.5,2.7c0.8,0.5,1.6,0.4,2.5,0.4
			c1.2,3.6,3,5.1,6.7,5.1c15.4,0,30.7,0,46.1,0c1.3,0,2.7-0.2,3.9-0.9c1.5-1,2.3-2.4,2.8-4.1c2.9,0.3,4.1-1.4,4-3.9
			c-0.1-3.7,0-7.3,0-11c0-2.9-1-3.9-3.9-3.9c0-0.5,0-1,0-1.5c0-7.5,0-15.1,0-22.6c0-1.9,0.1-3.9,0-5.8c-0.2-4.6-2.3-8.1-6.3-10.3
			C172,117.4,169.4,117.2,166.8,117.3z"/>
		<path class="st95" d="M121.2,158.9c0-6.4,0-12.8,0-19.2c0-1.6,0-3.2,0-4.7c0.1,0.2,0.2,0.4,0.2,0.5c0.8,3.5,2.7,6.1,5.7,7.9
			c2.5,1.5,5.2,1.6,7.9,1.6c0,1.6,0,3.2,0,4.8c-0.9-0.1-1.1,0.4-1.1,1.3c0.1,1.6,0.1,3.2,0,4.8c-0.1,0.9,0.3,1.2,1.1,1.1
			c0,0.5,0.1,1.1,0,1.6c-0.3,1.8,0.5,3.3,1.6,4.6c0.5,0.6,1,0.7,1.5,0.1c1.1-1.2,2.1-2.5,1.8-4.3c-0.1-0.6,0-1.3,0-2
			c0.8,0,1-0.3,1-1.1c-0.1-1.7-0.1-3.3,0-5c0-0.8-0.3-1.1-1-1.1c0-1.6,0-3.2,0-4.8c7.3,0,14.5,0,21.8,0c0,1.6,0,3.2,0,4.8
			c-0.7,0-1.1,0.2-1,1.1c0.1,1.7,0.1,3.3,0,5c0,0.8,0.3,1.1,1,1.1c0,0.6,0.1,1.2,0,1.7c-0.3,1.8,0.6,3.2,1.7,4.5
			c0.5,0.6,1,0.7,1.5,0.1c1.1-1.2,2-2.4,1.8-4.2c-0.1-0.7,0-1.4,0-2.1c0.8,0,1.1-0.3,1.1-1.1c-0.1-1.6-0.1-3.2,0-4.9
			c0.1-0.9-0.3-1.1-1.1-1.2c0-1.6,0-3.2,0-4.8c0.7,0,1.4,0,2.1,0c3.1,0,5.8-1.2,8.1-3.3c2-1.9,3-4.3,3.6-6.9c0,7.5,0,15.1,0,22.6
			c0,0.5,0,1,0,1.5c0,3.3,0,6.6-0.1,10c-19.8,0-39.6,0-59.4,0C121.2,165.6,121.2,162.2,121.2,158.9z"/>
		<path class="st96" d="M180.7,177.7c-0.5,1.7-1.3,3.1-2.8,4.1c-1.2,0.8-2.5,0.9-3.9,0.9c-15.4,0-30.7,0-46.1,0
			c-3.6,0-5.5-1.5-6.7-5.1c0-2.3,0-4.6,0-6.9c7.3,0,14.7,0,22,0c12.5,0,24.9,0,37.4,0C180.6,173.1,180.7,175.4,180.7,177.7z"/>
		<path class="st97" d="M161.8,145.1c-7.3,0-14.5,0-21.8,0c0-2.7,0-5.3,0-8c0-6.6,0-13.1,0-19.7c0.7,0,1.3,0,2,0c0.7,0,1.4,0,2.1,0
			c4.2,0,8.4,0,12.6,0c0.7,0,1.4,0,2.1,0c1,0,2,0,3,0C161.8,126.6,161.8,135.8,161.8,145.1z"/>
		<path class="st97" d="M135.1,145.1c-2.8,0-5.5-0.1-7.9-1.6c-3-1.8-5-4.5-5.7-7.9c0-0.2-0.1-0.4-0.2-0.5c0.1-2.7-0.3-5.3,0.2-8
			c1-5.6,5.9-9.6,11.5-9.7c0.7,0,1.4,0,2.1,0C135.2,126.6,135.1,135.8,135.1,145.1z"/>
		<path class="st97" d="M180.6,134.8c-0.6,2.6-1.6,5-3.6,6.9c-2.3,2.1-5,3.3-8.1,3.3c-0.7,0-1.4,0-2.1,0c0-6.2,0-12.5,0-18.7
			c0-3,0-6,0.1-9.1c2.6-0.1,5.2,0,7.5,1.4c4,2.3,6.2,5.7,6.3,10.3C180.7,130.9,180.7,132.9,180.6,134.8z"/>
		<path class="st98" d="M135.1,145.1c0-9.2,0.1-18.5,0-27.7c0-0.1,0.1-0.3,0.1-0.4c0.7-1,4.3-0.7,4.9,0.4c0,6.6,0,13.1,0,19.7
			c0,2.7,0,5.3,0,8c0,1.6,0,3.2,0,4.8c-1.6,0.1-3.3,0.1-4.9,0C135.1,148.3,135.1,146.7,135.1,145.1z"/>
		<path class="st98" d="M166.8,117.3c0,3-0.1,6-0.1,9.1c0,6.2,0,12.5,0,18.7c0,1.6,0,3.2,0,4.8c-1.6,0.1-3.3,0.1-4.9,0
			c0-1.6,0-3.2,0-4.8c0-9.2,0-18.5,0-27.7c0.1-0.7,0.6-1,1.3-1c0.8,0,1.5,0,2.3,0C166.2,116.3,166.7,116.6,166.8,117.3z"/>
		<path class="st97" d="M121.2,170.8c0,2.3,0,4.6,0,6.9c-0.8,0-1.7,0.1-2.5-0.4c-1-0.6-1.5-1.5-1.5-2.7c0-3.9,0-7.9,0-11.8
			c0-2.9,1-3.9,3.9-3.9c0,3.3,0.1,6.6,0.1,10C121.2,169.5,121.2,170.2,121.2,170.8z"/>
		<path class="st97" d="M180.7,177.7c0-2.3,0-4.6,0-6.9c0-0.7,0-1.3,0-2c0-3.3,0-6.6,0.1-10c2.9,0,3.9,1,3.9,3.9c0,3.7-0.1,7.4,0,11
			C184.7,176.3,183.6,178,180.7,177.7z"/>
		<path class="st99" d="M158.8,117.3c-0.7,0-1.4,0-2.1,0c-0.2-0.8-0.6-1.4-1.2-2c-2.1-2-4.7-2.4-7.4-1.7c-1.9,0.5-3.5,1.5-4,3.6
			c-0.7,0-1.4,0-2.1,0c0.1-2.1,1.4-3.5,3.1-4.6c3.8-2.3,9.3-1.7,12.2,1.4C158.2,115,158.8,116,158.8,117.3z"/>
		<path class="st100" d="M180.6,168.9c0,0.7,0,1.3,0,2c-12.5,0-24.9,0-37.4,0c-7.3,0-14.7,0-22,0c0-0.6,0-1.3,0-1.9
			C141,168.9,160.8,168.9,180.6,168.9z"/>
		<path class="st101" d="M161.8,149.9c1.6,0.1,3.3,0.1,4.9,0c0.8,0,1.1,0.2,1.1,1.2c-0.1,1.6-0.1,3.2,0,4.9c0,0.9-0.3,1.2-1.1,1.1
			c-1.6,0-3.3,0-4.9,0c-0.7,0-1.1-0.2-1-1.1c0.1-1.7,0.1-3.3,0-5C160.8,150.1,161.1,149.9,161.8,149.9z M164.3,154.9
			c1.1,0.3,1.7,0,1.6-1.3c-0.1-1.7,0-1.7-1.4-1.7c-1.8,0-1.5-0.3-1.6,1.5C162.7,154.7,163,155.3,164.3,154.9z"/>
		<path class="st102" d="M135.1,149.9c1.6,0.1,3.3,0.1,4.9,0c0.7,0,1,0.3,1,1.1c-0.1,1.7-0.1,3.3,0,5c0,0.8-0.2,1.1-1,1.1
			c-1.6,0-3.3,0-4.9,0c-0.8,0-1.1-0.2-1.1-1.1c0.1-1.6,0.1-3.2,0-4.8C134,150.3,134.2,149.8,135.1,149.9z M139.1,153.6
			c0-1.6,0-1.6-1.4-1.6c-1.8,0-1.5-0.2-1.5,1.5c0,1.4,0,1.3,1.6,1.5C139.1,155.1,139.2,154.4,139.1,153.6z"/>
		<path class="st103" d="M135.1,157.1c1.6,0,3.3,0,4.9,0c0,0.7-0.1,1.3,0,2c0.3,1.8-0.7,3.1-1.8,4.3c-0.5,0.6-1,0.5-1.5-0.1
			c-1.2-1.3-1.9-2.8-1.6-4.6C135.2,158.1,135.1,157.6,135.1,157.1z"/>
		<path class="st103" d="M161.9,157.1c1.6,0,3.3,0,4.9,0c0,0.7-0.1,1.4,0,2.1c0.3,1.8-0.7,3-1.8,4.2c-0.5,0.6-1,0.5-1.5-0.1
			c-1.1-1.3-2-2.6-1.7-4.5C161.9,158.2,161.9,157.6,161.9,157.1z"/>
		<path class="st79" d="M144.2,117.3c0.5-2.1,2.1-3.1,4-3.6c2.7-0.7,5.3-0.4,7.4,1.7c0.6,0.5,1,1.2,1.2,2
			C152.6,117.3,148.4,117.3,144.2,117.3z"/>
		<path class="st104" d="M164.3,154.9c-1.3,0.4-1.6-0.2-1.5-1.4c0.1-1.8-0.2-1.5,1.6-1.5c1.4,0,1.3,0,1.4,1.7
			C165.9,155,165.4,155.2,164.3,154.9z"/>
		<path class="st104" d="M139.1,153.6c0.2,0.9,0,1.6-1.4,1.4c-1.6-0.1-1.6,0-1.6-1.5c0-1.8-0.2-1.5,1.5-1.5
			C139.1,152,139.1,152,139.1,153.6z"/>
	</g>
	<g>
		
			<ellipse transform="matrix(0.3174 -0.9483 0.9483 0.3174 -39.1044 245.4588)" class="st140" cx="151" cy="149.9" rx="68.6" ry="68.6"/>
	</g>
</g>
</svg>
