<?xml version="1.0" encoding="utf-8"?>
<!-- Generator: Adobe Illustrator 22.1.0, SVG Export Plug-In . SVG Version: 6.00 Build 0)  -->
<svg version="1.1" id="Layer_1" xmlns="http://www.w3.org/2000/svg" xmlns:xlink="http://www.w3.org/1999/xlink" x="0px" y="0px"
	 viewBox="0 0 301.9 296" style="enable-background:new 0 0 301.9 296;" xml:space="preserve">
<style type="text/css">
	.st0{opacity:0.42;fill:url(#SVGID_1_);}
	.st1{fill:url(#SVGID_2_);}
	.st2{fill:#606161;}
	.st3{fill:url(#SVGID_3_);}
	.st4{opacity:0.42;fill:url(#SVGID_4_);}
	.st5{opacity:0.42;fill:url(#SVGID_5_);}
	.st6{fill:#ABABAB;}
	.st7{fill:#F1F2F2;}
	.st8{opacity:0.42;fill:url(#SVGID_6_);}
	.st9{opacity:0.42;fill:url(#SVGID_7_);}
	.st10{opacity:0.42;fill:url(#SVGID_8_);}
	.st11{opacity:0.42;fill:url(#SVGID_9_);}
	.st12{opacity:0.53;fill:#00A79D;}
	.st13{opacity:0.45;fill:#172F4D;}
	.st14{opacity:0.3;fill:#D3D3D3;}
	.st15{opacity:0.28;fill:#00A79D;}
	.st16{opacity:0.4;fill:#D3D3D3;}
	.st17{opacity:0.15;fill:#EE2A7B;}
	.st18{opacity:0.45;fill:#D3D3D3;}
	.st19{fill:#D3D3D3;}
	.st20{fill:#FFFFFF;}
	.st21{opacity:0.15;fill:#00A79D;}
	.st22{fill:#00A79D;}
	.st23{opacity:0.17;fill:#00A79D;}
	.st24{fill:#F9F9FA;}
	.st25{opacity:0.62;fill:#F7F7F7;}
	.st26{fill:#F8FCFD;}
	.st27{opacity:0.68;fill:#F8FCFD;}
	.st28{opacity:0.63;fill:#FFFFFF;}
	.st29{opacity:0.23;fill:#00A79D;}
	.st30{fill:#270E14;}
	.st31{opacity:0.33;fill:#00A79D;}
	.st32{fill:none;}
	.st33{opacity:0.35;fill:#00A79D;}
	.st34{opacity:0.62;fill:#EFF8F8;}
	.st35{fill:#1B75BC;}
	.st36{opacity:0.73;}
	.st37{fill:#66686C;}
	.st38{fill:#424D5C;}
	.st39{fill:#F8F8F8;}
	.st40{fill:#6EC4D6;}
	.st41{fill:#A5DCED;}
	.st42{fill:#EFEEED;}
	.st43{fill:#D7D7D6;}
	.st44{fill:#C8C8C8;}
	.st45{opacity:0.72;fill:#00A79D;}
	.st46{fill:none;stroke:#2B3990;stroke-miterlimit:10;stroke-dasharray:12.3981,12.3981;}
	.st47{fill:none;stroke:#2B3990;stroke-linecap:round;stroke-miterlimit:7;stroke-dasharray:3,0,0,0,0;}
	.st48{fill:#75787C;}
	.st49{fill:#41BEAC;}
	.st50{fill:#151515;}
	.st51{fill:#101010;}
	.st52{fill:#FECF0B;}
	.st53{fill:#232424;}
	.st54{fill:#F59820;}
	.st55{fill:#1A1A1A;}
	.st56{fill:#2D2E2E;}
	.st57{fill:#50C5F0;}
	.st58{fill:#FFD017;}
	.st59{fill:#69C7F1;}
	.st60{fill:#9CCA3F;}
	.st61{fill:#373737;}
	.st62{fill:#EED638;}
	.st63{fill:#F8F8F6;}
	.st64{fill:#FEFEFD;}
	.st65{fill:#F1F0EE;}
	.st66{opacity:0.57;}
	.st67{opacity:0.15;fill:#75787C;}
	.st68{fill:url(#SVGID_10_);}
	.st69{fill:#2E2E80;}
	.st70{fill:#356F83;}
	.st71{fill:#999999;}
	.st72{fill:#93A4A5;}
	.st73{fill:#FFD55E;}
	.st74{fill:#FEFEFE;}
	.st75{fill:#1FB579;}
	.st76{fill:#D86D28;}
	.st77{fill:#D2D1D1;}
	.st78{fill:#FDFEFD;}
	.st79{fill:#45B19B;}
	.st80{fill:#44B39C;}
	.st81{fill:#48B19B;}
	.st82{fill:#46AD97;}
	.st83{fill:#EAE9E8;}
	.st84{fill:#E9E9E8;}
	.st85{fill:#344E5D;}
	.st86{fill:#DF7B3E;}
	.st87{fill:#ECC64B;}
	.st88{fill:#EEC74B;}
	.st89{fill:#EFC84B;}
	.st90{fill:#4B626F;}
	.st91{fill:#E5C048;}
	.st92{fill:#4B606E;}
	.st93{fill:#E8EBEB;}
	.st94{fill:#FACD65;}
	.st95{fill:#364F5D;}
	.st96{fill:#4D616F;}
	.st97{fill:#7EC9CA;}
	.st98{fill:#E27C3D;}
	.st99{fill:#4B6370;}
	.st100{fill:#E27C3C;}
	.st101{fill:#E6E8E8;}
	.st102{fill:#E7E8E8;}
	.st103{fill:#E17B3D;}
	.st104{fill:#E27F42;}
	.st105{opacity:0.42;fill:url(#SVGID_11_);}
	.st106{opacity:0.7;}
	.st107{opacity:0.42;fill:url(#SVGID_12_);}
	.st108{opacity:0.42;fill:#FFFFFF;}
	.st109{opacity:0.47;fill:#7A8483;}
	.st110{opacity:0.21;fill:#FEFFFF;}
	.st111{fill:#393E46;}
	.st112{fill:#DAD8D5;}
	.st113{fill:#F2F2F2;}
	.st114{fill:#EF7245;}
	.st115{fill:#51C4D0;}
	.st116{fill:#FAFDFF;}
	.st117{fill:#E5B54E;}
	.st118{fill:#FDFEFC;}
	.st119{fill:#F8CF1E;}
	.st120{fill:#F8CF1B;}
	.st121{fill:#FDE0C3;}
	.st122{fill:#28434C;}
	.st123{fill:#79C1B0;}
	.st124{fill:#F0E65E;}
	.st125{fill:#DA615A;}
	.st126{fill:#F7CE18;}
	.st127{fill:#F8CB10;}
	.st128{fill:#C09945;}
	.st129{fill:#E8B84F;}
	.st130{fill:#CCCBC9;}
	.st131{fill:#415461;}
	.st132{fill:#F36F42;}
	.st133{fill:#FFFEFF;stroke:#FFFFFF;stroke-miterlimit:10;}
	.st134{fill:#F4F1EE;}
	.st135{fill:none;stroke:#FFFFFF;stroke-miterlimit:10;}
	.st136{fill:#F79B37;}
	.st137{fill:#F3C241;}
	.st138{fill:#BBC1C5;}
	.st139{fill:#FCFCFD;}
	.st140{fill:none;stroke:#2B3990;stroke-miterlimit:10;stroke-dasharray:11.9667,11.9667;}
	.st141{fill:#CECECE;}
	.st142{fill:#CACACA;}
	.st143{fill:#F9F9FA;stroke:#F7F9F9;stroke-miterlimit:10;}
	.st144{fill:#F37758;}
	.st145{fill:#5D6571;}
	.st146{fill:#FFFFFF;stroke:#424D5C;stroke-miterlimit:10;}
	.st147{fill:#619D9D;}
	.st148{fill:#5E9998;}
	.st149{fill:url(#SVGID_13_);}
	.st150{opacity:0.1;fill:#606161;}
	.st151{opacity:0.68;fill:#FFFFFF;}
	.st152{fill:#1F4D8E;}
	.st153{fill:#FEF7F5;}
	.st154{fill:#ED5940;}
	.st155{fill:#9C479B;}
	.st156{fill:#794D9F;}
	.st157{fill:#EC3F56;}
	.st158{fill:#AF4298;}
	.st159{fill:#E4376A;}
	.st160{fill:#D63981;}
	.st161{fill:#C73D94;}
	.st162{fill:#DF3874;}
	.st163{fill:#18AD4C;}
	.st164{opacity:0.68;fill:#FFFFFF;stroke:#727373;stroke-miterlimit:7;}
</style>
<g>
	<g>
		<circle class="st117" cx="151.7" cy="151" r="63.8"/>
		<path class="st118" d="M87.8,161.7c0-1.3,0-2.6,0-3.9c1.1,0,2.2-0.1,3.4-0.1c13.7,0,27.3,0,41,0c1,0,2.2,0.3,2.2-1.4
			c0-1.7-1.2-1.4-2.2-1.4c-14.8,0-29.6,0-44.4,0.1c0-1.3,0-2.6,0-3.9c1.1,0,2.2-0.1,3.4-0.1c13.7,0,27.3,0,41,0c1,0,2.2,0.3,2.2-1.4
			c0-1.7-1.2-1.4-2.2-1.4c-14.8,0-29.6,0.1-44.4,0.1c0-1.3,0-2.6,0-3.9c1.2-0.1,2.4-0.2,3.6-0.2c13.2,0,26.4,0,39.6,0
			c0.7,0,1.5,0,2.2,0c0.8-0.1,1-0.6,1-1.4c0-0.8-0.2-1.3-1.1-1.3c-0.7,0-1.5,0-2.2,0c-14.1,0-28.3-0.1-42.4-0.1
			c0.3-1.3,0.2-2.8,0.9-4.1c9,0,17.9,0,26.9,0c5.3,0,10.7,0,16,0c1,0,1.9,0,1.9-1.4c-0.1-1.3-1-1.1-1.8-1.1c-0.6,0-1.1,0-1.7,0
			c-13.6,0-27.1,0-40.7,0c0.8-3.5,1.9-7,3.8-10.1c24.6,0,49.2,0,73.8,0c2.9,2.6,6,4.7,10.1,4.6c0,11.1,0,22.1,0,33.2
			c-0.6-0.3-0.6-0.9-0.8-1.4c-0.9-2.3-2.7-3-5-2.5c-2.3,0.5-3.1,2.2-2.8,4.5c0.2,1.3,0.4,2.6,0.6,3.8l0,0c-0.4-0.7-0.9-1.4-1.3-2.1
			c-1.9-2.8-5.5-2.6-7.1,0.4c-0.4,0.7-0.6,1.5-1.1,3c-1.1-3.9-1.9-7.1-2.8-10.3c3.6,0,7.1-0.1,10.7,0c1.6,0,2.3-0.3,2.3-2.2
			c-0.1-6.3-0.1-12.5,0-18.8c0-1.8-0.7-2.2-2.3-2.2c-7.7,0.1-15.4,0.1-23,0c-1.9,0-2.4,0.7-2.3,2.4c0.1,5.1,0,10.1,0,15.2
			c0,5.6,0,5.6,5.6,5.5c1.2,3.5,2.5,6.9,3,10.6c-2,0-3.9,0.2-5.9,0.1c-1.7-0.1-2.3,0.4-2.2,2.2c0.1,5,0,10.1,0,15.1
			c0,5.8,0,5.8,5.9,6c0.1,0,0.2,0,0.3,0c-0.4,2.9,0.6,5.2,2.9,6.8c2.8,2,4.9,4.6,7.4,6.9c2.5,2.3,4.7,5.1,7.7,6.8
			c-1.9,0.4-3.7,0.8-5.6,1.3c-0.5,0.1-1.7-0.3-1.2,1.1c-6.4,0-12.7,0-19.1,0c-0.8-0.9-0.8-0.9-2.2-1.2c-14.9-2.9-27.4-10-37.1-21.8
			c10.5,0,21-0.1,31.5-0.1c1,0,2.1,0.2,2.1-1.4c-0.1-1.5-1.1-1.3-2-1.3c-11.2,0-22.5,0.1-33.7,0.1c-1.2-1.2-2-2.6-2.8-4
			c1.2,0,2.4-0.1,3.6-0.1c10.9,0,21.9,0,32.8,0c1.1,0,2.1,0.1,2-1.5c-0.1-1.5-1.1-1.2-2-1.2c-12.7,0-25.4,0-38.2,0.1
			c-0.8-1.3-1.7-2.5-2-4c13.4,0,26.7,0,40.1-0.1c1,0,2.1,0.2,2.1-1.5c0-1.5-1-1.3-1.9-1.3c-13.8,0-27.6,0-41.5,0.1
			c-0.7-1.3-1.3-2.5-1.5-4c14.2,0,28.4,0,42.6-0.1c0.9,0,2.2,0.4,2.2-1.3c0.1-1.6-1-1.5-2-1.5c-14.6,0-29.1,0.1-43.7,0.1
			c-0.5-1.9-0.9-3.7-1.4-5.6C88.8,162.3,89.1,161.1,87.8,161.7z"/>
		<path class="st119" d="M87.8,140.9c0.1,0.4,0.5,0.5,0.8,0.3c14.1,0.1,28.3,0.1,42.4,0.2c0.7,0,1.5,0,2.2,0c0.9,0,1.1,0.6,1.1,1.3
			c0,0.7-0.2,1.3-1,1.4c-0.7,0-1.5,0-2.2,0c-13.2,0-26.4,0-39.6,0c-1.2,0-2.4,0.1-3.6,0.2C87.8,143.1,87.8,142,87.8,140.9z"/>
		<path class="st120" d="M87.8,154.9c14.8,0,29.6,0,44.4-0.1c1,0,2.2-0.3,2.2,1.4c0,1.7-1.2,1.4-2.2,1.4c-13.7,0-27.3,0-41,0
			c-1.1,0-2.2,0.1-3.4,0.1C87.8,156.8,87.8,155.9,87.8,154.9z"/>
		<path class="st120" d="M87.8,148.2c14.8,0,29.6-0.1,44.4-0.1c1,0,2.2-0.3,2.2,1.4c0,1.7-1.2,1.4-2.2,1.4c-13.7,0-27.3,0-41,0
			c-1.1,0-2.2,0.1-3.4,0.1C87.8,150,87.8,149.1,87.8,148.2z"/>
		<path class="st121" d="M196.4,195.3c-8,8.2-17.6,13.9-28.7,16.8c-3.1-1.7-5.2-4.4-7.7-6.8c-2.5-2.3-4.6-4.9-7.4-6.9
			c-2.3-1.7-3.3-4-2.9-6.8c3.1-2.6,3.8-2.7,7.3-0.6c0.4,0.2,0.8,0.6,1.3,0.3c0.7-0.3,0.3-0.9,0.2-1.5c-1.4-4.4-2.7-8.9-4.1-13.3
			c-0.9-2.8-1.3-5.8-2.8-8.4c-0.5-3.7-1.8-7.1-3-10.6c-0.2-0.6-0.4-1.3-0.5-1.9c-0.5-3,0.6-5.1,3.1-5.7c2.1-0.5,4.3,1,5.1,3.7
			c0.4,1.3,0.9,2.6,1.3,4c0.9,3.2,1.8,6.4,2.8,10.3c0.5-1.5,0.7-2.3,1.1-3c1.6-3,5.1-3.2,7.1-0.4c0.5,0.7,0.9,1.4,1.3,2.1
			c0.1,0.2,0.1,0.5,0.2,0.7c0.1,0,0.2-0.1,0.2-0.1c-0.1-0.2-0.3-0.4-0.4-0.6c-0.2-1.3-0.4-2.6-0.6-3.8c-0.3-2.3,0.5-3.9,2.8-4.5
			c2.2-0.5,4.1,0.1,5,2.5c0.2,0.5,0.2,1.1,0.8,1.4c0.2,1,0.4,2,0.6,3c0.2-0.1,0.4-0.1,0.4-0.2c0.2-2.5,1-4.7,4-4.9
			c3.1-0.2,4.1,2,4.9,4.5c2.6,8.7,5.2,17.4,7.8,26C195.9,192.1,196.1,193.7,196.4,195.3z M170.6,168.4c-0.3,2.3,0.1,3.8,1.3,5.6
			C172.2,171.9,171.3,170.5,170.6,168.4z"/>
		<path class="st122" d="M94,124.5c2.7-6.4,6.5-12.1,11.7-16.8c7.3,0,14.7,0.1,22,0.1c0.7,4.8,3.4,8,7.8,9.7c1.9,0.7,3.7,2,5.8,1.2
			c5.4-1.9,9.6-5,10.6-11.1c2.6-0.1,5.3-0.1,7.9-0.2c3.1,0.1,6.3,0.2,9.4,0.2c-4.7,5.2-5,10.8-1.5,16.8
			C143.2,124.5,118.6,124.5,94,124.5z"/>
		<path class="st123" d="M157.5,157.7c-0.4-1.3-0.9-2.6-1.3-4c-0.9-2.7-3-4.2-5.1-3.7c-2.5,0.6-3.6,2.7-3.1,5.7
			c0.1,0.6,0.3,1.3,0.5,1.9c-5.6,0.2-5.6,0.2-5.6-5.5c0-5.1,0.1-10.1,0-15.2c0-1.8,0.4-2.5,2.3-2.4c7.7,0.1,15.4,0.1,23,0
			c1.6,0,2.3,0.4,2.3,2.2c-0.1,6.3-0.1,12.5,0,18.8c0,1.8-0.7,2.2-2.3,2.2C164.6,157.6,161.1,157.7,157.5,157.7z"/>
		<path class="st124" d="M167.8,124.5c-3.6-5.9-3.2-11.5,1.5-16.8c5.9-3.9,11.3-3.9,16.9,0c0.3,0.6,0.7,0.6,1.3,0.6
			c0.1,0.1,0.2,0.2,0.3,0.4c0,1,0.4,1.8,0.8,2.6c4,8.4-1.3,17.3-10.6,17.8C173.8,129.2,170.7,127.1,167.8,124.5z M179,112.6
			c1,0.1,1.6,2.2,2.7,0.7c0.9-1.3-0.3-2.2-1.2-3c-2.8-2.4-2.8-2.4-5.8,0.1c-2.1,1.8-2.3,4.6,0,6.2c1.9,1.3,2,2.8,1.5,5
			c-0.8-0.7-1.2-1.8-2.4-1.4c-0.4,0.1-0.6,0.4-0.6,0.8c-0.1,1.1,3.6,4.8,4.6,4.6c0.3-0.1,0.7-0.3,0.8-0.6c0.3-0.8,1-1.1,1.6-1.5
			c2.4-1.7,2.7-4.6,0.3-6.3C178.8,115.9,178.7,114.5,179,112.6z"/>
		<path class="st125" d="M151.5,168.2c1.5,2.6,1.9,5.6,2.8,8.4c1.4,4.4,2.8,8.9,4.1,13.3c0.2,0.5,0.5,1.1-0.2,1.5
			c-0.4,0.2-0.9-0.1-1.3-0.3c-3.6-2.1-4.3-2-7.3,0.6c-0.1,0-0.2,0-0.3,0c-5.9-0.2-5.9-0.2-5.9-6c0-5,0.1-10.1,0-15.1
			c0-1.8,0.5-2.3,2.2-2.2C147.6,168.4,149.5,168.2,151.5,168.2z"/>
		<path class="st120" d="M91.2,171.1c-0.7-0.8-0.7-1.8-0.9-2.7c14.6,0,29.1-0.1,43.7-0.1c1,0,2.1-0.2,2,1.5
			c-0.1,1.7-1.3,1.3-2.2,1.3C119.6,171.1,105.4,171.1,91.2,171.1z"/>
		<path class="st126" d="M94,177.9c-0.8-0.7-1-1.8-1.3-2.8c13.8,0,27.6-0.1,41.5-0.1c0.9,0,1.9-0.2,1.9,1.3c0,1.7-1,1.5-2.1,1.5
			C120.7,177.9,107.3,177.9,94,177.9z"/>
		<path class="st126" d="M97.6,184.8c-0.6-0.9-1.1-1.9-1.7-2.8c12.7,0,25.4-0.1,38.2-0.1c0.9,0,1.9-0.3,2,1.2c0.1,1.6-0.9,1.5-2,1.5
			c-10.9,0-21.9,0-32.8,0C100,184.6,98.8,184.7,97.6,184.8z"/>
		<path class="st127" d="M89.6,137.1c-0.1-0.9,0.3-1.7,0.6-2.5c13.6,0,27.1,0,40.7,0c0.6,0,1.1,0,1.7,0c0.8,0,1.7-0.2,1.8,1.1
			c0.1,1.4-0.9,1.4-1.9,1.4c-5.3,0-10.7,0-16,0C107.5,137.1,98.5,137.1,89.6,137.1z"/>
		<path class="st119" d="M102.5,191.5c-0.9-0.7-1.6-1.7-2.1-2.7c11.2,0,22.5-0.1,33.7-0.1c0.9,0,1.9-0.2,2,1.3
			c0.1,1.7-1.1,1.4-2.1,1.4C123.5,191.4,113,191.5,102.5,191.5z"/>
		<path class="st124" d="M208.7,147.4c0,6.9-5.2,12-12,12c-6.9,0-12.2-5.3-12.2-12.2c0-6.9,5.2-12,12.4-12
			C203.6,135.3,208.7,140.5,208.7,147.4z M197.7,142.7c1.1,0.3,1.7,2.4,2.8,1.1c1-1.2-0.4-2.1-1.2-3c-1.8-2-3.5-1.9-5.4-0.1
			c-2.4,2.3-2.7,4.5,0.2,6.4c2,1.4,1.9,2.8,1.4,4.9c-1-0.7-1.5-2.5-2.7-1.2c-1,1.1,0.1,2.1,0.9,2.8c2.9,2.7,2.9,2.6,5.8,0.1
			c2.5-2.2,2.4-4.6-0.3-6.4C197.3,146.1,197.1,144.7,197.7,142.7z"/>
		<path class="st124" d="M151.9,107.7c-1,6.1-5.3,9.1-10.6,11.1c-2.1,0.8-3.9-0.5-5.8-1.2c-4.4-1.8-7.2-4.9-7.8-9.7
			c-0.2-4.9,1-9.2,5.5-12c3.8-2.3,7.6-2.6,11.6-0.7c0.7,0.3,1.4,0.5,2.1,0.8c0.3,0.5,0.7,0.6,1.2,0.6c0,0,0,0,0,0
			c0.2,0.2,0.4,0.4,0.6,0.6c0,0,0,0,0,0c0.2,0.2,0.4,0.4,0.6,0.6c0,0,0,0,0,0c0,0.5,0.2,0.9,0.6,1.2c0.1,0.2,0.2,0.3,0.4,0.5
			C151.4,101.9,152.2,104.7,151.9,107.7z M138.3,110.6c-1.1-0.6-1.9-2.2-3-0.6c-0.6,0.9,3.5,4.9,4.5,4.2c1.5-1,3.6-1.4,4.2-3.4
			c0.5-1.9,0.1-3.6-1.7-4.6c-2.1-1.2-1.6-3-1.5-4.8c1,0,0.9,0.7,1.1,1.2c0.3,0.5,0.7,0.6,1.2,0.4c0.6-0.2,0.9-0.6,0.9-1.3
			c0-1-3.7-4.5-4.5-4.1c-1.6,1-3.4,2-4.1,3.9c-0.7,1.7,0.1,3.1,1.3,3.9C138.5,106.8,138.6,108.5,138.3,110.6z"/>
		<path class="st128" d="M149.6,98.8c-0.4-0.3-0.6-0.7-0.6-1.2C149.6,97.9,149.6,98.3,149.6,98.8z"/>
		<path class="st128" d="M148,96.5c-0.5,0-0.9-0.1-1.2-0.6C147.2,95.9,147.7,96,148,96.5z"/>
		<path class="st128" d="M187.4,108.3c-0.5,0.1-1,0-1.3-0.6C186.7,107.7,187.1,107.9,187.4,108.3z"/>
		<path class="st128" d="M149.1,97.6c-0.2-0.2-0.4-0.4-0.6-0.6C148.7,97.2,148.9,97.4,149.1,97.6z"/>
		<path class="st128" d="M148.5,97.1c-0.2-0.2-0.4-0.4-0.6-0.6C148.1,96.7,148.3,96.9,148.5,97.1z"/>
		<path class="st118" d="M170.6,168.4c0.7,2,1.6,3.4,1.3,5.6C170.8,172.2,170.3,170.7,170.6,168.4z"/>
		<path class="st118" d="M169.9,166.7c0.1,0.2,0.3,0.4,0.4,0.6c0,0-0.1,0.1-0.2,0.1C170,167.2,169.9,167,169.9,166.7
			C169.9,166.7,169.9,166.7,169.9,166.7z"/>
		<path class="st129" d="M179,112.6c-0.4,1.9-0.3,3.3,1.6,4.6c2.4,1.7,2.1,4.6-0.3,6.3c-0.6,0.4-1.3,0.7-1.6,1.5
			c-0.1,0.3-0.5,0.5-0.8,0.6c-1,0.2-4.7-3.6-4.6-4.6c0-0.4,0.2-0.7,0.6-0.8c1.1-0.4,1.6,0.7,2.4,1.4c0.5-2.2,0.4-3.7-1.5-5
			c-2.3-1.6-2.2-4.4,0-6.2c3-2.5,3-2.5,5.8-0.1c0.9,0.8,2.1,1.7,1.2,3C180.6,114.9,180,112.7,179,112.6z"/>
		<path class="st129" d="M197.7,142.7c-0.6,2-0.4,3.4,1.4,4.6c2.7,1.8,2.8,4.2,0.3,6.4c-2.9,2.6-2.9,2.6-5.8-0.1
			c-0.8-0.8-1.9-1.7-0.9-2.8c1.2-1.3,1.7,0.5,2.7,1.2c0.6-2.1,0.6-3.5-1.4-4.9c-2.8-1.9-2.6-4.1-0.2-6.4c2-1.9,3.6-2,5.4,0.1
			c0.8,0.9,2.2,1.8,1.2,3C199.4,145.1,198.8,143,197.7,142.7z"/>
		<path class="st129" d="M138.3,110.6c0.3-2.2,0.2-3.8-1.7-5.1c-1.2-0.8-2-2.3-1.3-3.9c0.8-1.9,2.5-2.9,4.1-3.9
			c0.8-0.5,4.5,3,4.5,4.1c0,0.6-0.3,1.1-0.9,1.3c-0.5,0.2-0.9,0.1-1.2-0.4c-0.2-0.5-0.2-1.2-1.1-1.2c-0.1,1.8-0.6,3.6,1.5,4.8
			c1.7,1,2.2,2.8,1.7,4.6c-0.5,2-2.7,2.4-4.2,3.4c-1,0.6-5-3.3-4.5-4.2C136.3,108.4,137.2,110,138.3,110.6z"/>
	</g>
	<circle class="st47" cx="151" cy="151" r="69.2"/>
</g>
</svg>
