<?xml version="1.0" encoding="utf-8"?>
<!-- Generator: Adobe Illustrator 22.1.0, SVG Export Plug-In . SVG Version: 6.00 Build 0)  -->
<svg version="1.1" id="Layer_1" xmlns="http://www.w3.org/2000/svg" xmlns:xlink="http://www.w3.org/1999/xlink" x="0px" y="0px"
	 viewBox="0 0 301.9 296" style="enable-background:new 0 0 301.9 296;" xml:space="preserve">
<style type="text/css">
	.st0{opacity:0.42;fill:url(#SVGID_1_);}
	.st1{fill:url(#SVGID_2_);}
	.st2{fill:#606161;}
	.st3{fill:url(#SVGID_3_);}
	.st4{opacity:0.42;fill:url(#SVGID_4_);}
	.st5{opacity:0.42;fill:url(#SVGID_5_);}
	.st6{fill:#ABABAB;}
	.st7{fill:#F1F2F2;}
	.st8{opacity:0.42;fill:url(#SVGID_6_);}
	.st9{opacity:0.42;fill:url(#SVGID_7_);}
	.st10{opacity:0.42;fill:url(#SVGID_8_);}
	.st11{opacity:0.42;fill:url(#SVGID_9_);}
	.st12{opacity:0.53;fill:#00A79D;}
	.st13{opacity:0.45;fill:#172F4D;}
	.st14{opacity:0.3;fill:#D3D3D3;}
	.st15{opacity:0.28;fill:#00A79D;}
	.st16{opacity:0.4;fill:#D3D3D3;}
	.st17{opacity:0.15;fill:#EE2A7B;}
	.st18{opacity:0.45;fill:#D3D3D3;}
	.st19{fill:#D3D3D3;}
	.st20{fill:#FFFFFF;}
	.st21{opacity:0.15;fill:#00A79D;}
	.st22{fill:#00A79D;}
	.st23{opacity:0.17;fill:#00A79D;}
	.st24{fill:#F9F9FA;}
	.st25{opacity:0.62;fill:#F7F7F7;}
	.st26{fill:#F8FCFD;}
	.st27{opacity:0.68;fill:#F8FCFD;}
	.st28{opacity:0.63;fill:#FFFFFF;}
	.st29{opacity:0.23;fill:#00A79D;}
	.st30{fill:#270E14;}
	.st31{opacity:0.33;fill:#00A79D;}
	.st32{fill:none;}
	.st33{opacity:0.35;fill:#00A79D;}
	.st34{opacity:0.62;fill:#EFF8F8;}
	.st35{fill:#1B75BC;}
	.st36{opacity:0.73;}
	.st37{fill:#66686C;}
	.st38{fill:#424D5C;}
	.st39{fill:#F8F8F8;}
	.st40{fill:#6EC4D6;}
	.st41{fill:#A5DCED;}
	.st42{fill:#EFEEED;}
	.st43{fill:#D7D7D6;}
	.st44{fill:#C8C8C8;}
	.st45{opacity:0.72;fill:#00A79D;}
	.st46{fill:none;stroke:#2B3990;stroke-miterlimit:10;stroke-dasharray:12.3981,12.3981;}
	.st47{fill:none;stroke:#2B3990;stroke-linecap:round;stroke-miterlimit:7;stroke-dasharray:3,0,0,0,0;}
	.st48{fill:#75787C;}
	.st49{fill:#41BEAC;}
	.st50{fill:#151515;}
	.st51{fill:#101010;}
	.st52{fill:#FECF0B;}
	.st53{fill:#232424;}
	.st54{fill:#F59820;}
	.st55{fill:#1A1A1A;}
	.st56{fill:#2D2E2E;}
	.st57{fill:#50C5F0;}
	.st58{fill:#FFD017;}
	.st59{fill:#69C7F1;}
	.st60{fill:#9CCA3F;}
	.st61{fill:#373737;}
	.st62{fill:#EED638;}
	.st63{fill:#F8F8F6;}
	.st64{fill:#FEFEFD;}
	.st65{fill:#F1F0EE;}
	.st66{opacity:0.57;}
	.st67{opacity:0.15;fill:#75787C;}
	.st68{fill:url(#SVGID_10_);}
	.st69{fill:#2E2E80;}
	.st70{fill:#356F83;}
	.st71{fill:#999999;}
	.st72{fill:#93A4A5;}
	.st73{fill:#FFD55E;}
	.st74{fill:#FEFEFE;}
	.st75{fill:#1FB579;}
	.st76{fill:#D86D28;}
	.st77{fill:#D2D1D1;}
	.st78{fill:#FDFEFD;}
	.st79{fill:#45B19B;}
	.st80{fill:#44B39C;}
	.st81{fill:#48B19B;}
	.st82{fill:#46AD97;}
	.st83{fill:#EAE9E8;}
	.st84{fill:#E9E9E8;}
	.st85{fill:#344E5D;}
	.st86{fill:#DF7B3E;}
	.st87{fill:#ECC64B;}
	.st88{fill:#EEC74B;}
	.st89{fill:#EFC84B;}
	.st90{fill:#4B626F;}
	.st91{fill:#E5C048;}
	.st92{fill:#4B606E;}
	.st93{fill:#E8EBEB;}
	.st94{fill:#FACD65;}
	.st95{fill:#364F5D;}
	.st96{fill:#4D616F;}
	.st97{fill:#7EC9CA;}
	.st98{fill:#E27C3D;}
	.st99{fill:#4B6370;}
	.st100{fill:#E27C3C;}
	.st101{fill:#E6E8E8;}
	.st102{fill:#E7E8E8;}
	.st103{fill:#E17B3D;}
	.st104{fill:#E27F42;}
	.st105{opacity:0.42;fill:url(#SVGID_11_);}
	.st106{opacity:0.7;}
	.st107{opacity:0.42;fill:url(#SVGID_12_);}
	.st108{opacity:0.42;fill:#FFFFFF;}
	.st109{opacity:0.47;fill:#7A8483;}
	.st110{opacity:0.21;fill:#FEFFFF;}
	.st111{fill:#393E46;}
	.st112{fill:#DAD8D5;}
	.st113{fill:#F2F2F2;}
	.st114{fill:#EF7245;}
	.st115{fill:#51C4D0;}
	.st116{fill:#FAFDFF;}
	.st117{fill:#E5B54E;}
	.st118{fill:#FDFEFC;}
	.st119{fill:#F8CF1E;}
	.st120{fill:#F8CF1B;}
	.st121{fill:#FDE0C3;}
	.st122{fill:#28434C;}
	.st123{fill:#79C1B0;}
	.st124{fill:#F0E65E;}
	.st125{fill:#DA615A;}
	.st126{fill:#F7CE18;}
	.st127{fill:#F8CB10;}
	.st128{fill:#C09945;}
	.st129{fill:#E8B84F;}
	.st130{fill:#CCCBC9;}
	.st131{fill:#415461;}
	.st132{fill:#F36F42;}
	.st133{fill:#FFFEFF;stroke:#FFFFFF;stroke-miterlimit:10;}
	.st134{fill:#F4F1EE;}
	.st135{fill:none;stroke:#FFFFFF;stroke-miterlimit:10;}
	.st136{fill:#F79B37;}
	.st137{fill:#F3C241;}
	.st138{fill:#BBC1C5;}
	.st139{fill:#FCFCFD;}
	.st140{fill:none;stroke:#2B3990;stroke-miterlimit:10;stroke-dasharray:11.9667,11.9667;}
	.st141{fill:#CECECE;}
	.st142{fill:#CACACA;}
	.st143{fill:#F9F9FA;stroke:#F7F9F9;stroke-miterlimit:10;}
	.st144{fill:#F37758;}
	.st145{fill:#5D6571;}
	.st146{fill:#FFFFFF;stroke:#424D5C;stroke-miterlimit:10;}
	.st147{fill:#619D9D;}
	.st148{fill:#5E9998;}
	.st149{fill:url(#SVGID_13_);}
	.st150{opacity:0.1;fill:#606161;}
	.st151{opacity:0.68;fill:#FFFFFF;}
	.st152{fill:#1F4D8E;}
	.st153{fill:#FEF7F5;}
	.st154{fill:#ED5940;}
	.st155{fill:#9C479B;}
	.st156{fill:#794D9F;}
	.st157{fill:#EC3F56;}
	.st158{fill:#AF4298;}
	.st159{fill:#E4376A;}
	.st160{fill:#D63981;}
	.st161{fill:#C73D94;}
	.st162{fill:#DF3874;}
	.st163{fill:#18AD4C;}
	.st164{opacity:0.68;fill:#FFFFFF;stroke:#727373;stroke-miterlimit:7;}
</style>
<g>
	<rect x="119.5" y="111.9" class="st20" width="76.4" height="76.4"/>
	<path class="st38" d="M216.5,150.9c-0.1,35.4-29,64-64.5,63.8c-35.2-0.2-63.6-29-63.5-64.2c0.1-35.4,29-64,64.5-63.8
		C188.1,86.9,216.6,115.6,216.5,150.9z M139.4,181.6c13.6,0.7,27.2,0.4,40.8,0.2c2.6,0,4.8-1.1,6.5-3.2c1.2-1.4,2.4-3.1,1.6-4.9
		c-0.7-1.7-2.6-0.7-4-0.8c-1.3-0.1-2.7-0.1-4-0.1c-0.1-17.3-0.2-34.7-0.3-52c0.3-0.7,0-0.9-0.6-0.9c-7.7-0.1-15.3-0.2-23-0.3
		c-0.6-2-1.7-3.7-4-3.7c-2.3,0-3.4,1.7-4,3.7c-6.5,0-12.9,0.2-19.4-0.1c-3.4-0.1-4.5,0.8-4.5,4.4c0.2,14.8,0.1,29.5,0.1,44.3
		C124.7,179.5,128.1,182.6,139.4,181.6z"/>
	<path class="st44" d="M139.4,181.6c1.1-2.4,2.2-4.7,3.3-7.1c1-2.2,3-1.7,4.8-1.7c11,0,21.9,0,32.9-0.1c1.3,0,2.7-0.1,4,0.1
		c1.4,0.2,3.3-0.8,4,0.8c0.8,1.8-0.4,3.5-1.6,4.9c-1.7,2-3.9,3.1-6.5,3.2C166.7,181.9,153,182.3,139.4,181.6z"/>
	<path class="st144" d="M156.4,119.5c-3,4.9-4.9,4.9-7.9,0c0.6-2,1.7-3.7,4-3.7C154.8,115.8,155.8,117.5,156.4,119.5z"/>
	<path class="st44" d="M180.1,120.7c-0.2-0.3-0.4-0.6-0.6-0.9C180.1,119.8,180.4,120,180.1,120.7z"/>
	<ellipse class="st145" cx="158.8" cy="130.9" rx="14.8" ry="0.7"/>
	<path class="st145" d="M169.2,134.4c-7,0-13.9,0-20.9,0c0-0.3,0-0.6,0-0.9c7,0,13.9,0,20.9,0C169.2,133.8,169.2,134.1,169.2,134.4z
		"/>
	<path class="st38" d="M169,137.5c-6.7,0-13.3,0-20,0c0-0.2,0-0.5,0-0.7c6.7,0,13.4,0,20.1,0C169,137,169,137.2,169,137.5z"/>
	<path class="st20" d="M152.3,151.6c-4.3,0-8.7-0.2-13,0.1c-3.1,0.2-3-1.5-3.1-3.7c-0.1-2.3,0.3-3.7,3.2-3.6
		c8.8,0.2,17.6,0.2,26.4,0c3.3-0.1,2.7,2,2.8,4c0.1,2.1-0.3,3.4-2.9,3.3C161.3,151.5,156.8,151.6,152.3,151.6z"/>
	<path class="st42" d="M143.4,160.9c0.6,2.9-0.7,3.6-3.5,3.7c-3.3,0.1-3.8-1.3-3.8-4.1c0-2.8,0.9-3.6,3.7-3.7
		C143.2,156.7,143.9,158.1,143.4,160.9z"/>
	<path class="st42" d="M161.5,160.7c-0.6-3,0.6-4,3.7-4c3,0,3.5,1.3,3.6,3.9c0.1,3-0.8,4-3.9,4C161.8,164.6,161.1,163.4,161.5,160.7
		z"/>
	<path class="st42" d="M143.3,135.1c0.6,3.1-0.5,4-3.4,4.1c-3.3,0.1-3.7-1.4-3.8-4.2c-0.1-3.2,1.4-3.4,3.9-3.4
		C143,131.6,144.2,132.5,143.3,135.1z"/>
	<path class="st44" d="M155.4,164.3c0.2-0.2,0.5-0.5,0.7-0.7C156.3,164.3,156.1,164.5,155.4,164.3z"/>
	<path class="st44" d="M156.1,157.7c-0.2-0.2-0.5-0.5-0.7-0.7C156.1,156.8,156.3,157.1,156.1,157.7z"/>
	<path class="st44" d="M149.5,157c-0.2,0.2-0.5,0.5-0.7,0.7C148.7,157.1,148.9,156.8,149.5,157z"/>
	<path class="st44" d="M148.8,163.6c0.2,0.2,0.5,0.5,0.7,0.7C148.9,164.5,148.6,164.3,148.8,163.6z"/>
	<rect x="133.8" y="129.6" class="st146" width="10.5" height="10.5"/>
	<rect x="133.8" y="142.9" class="st146" width="35.4" height="9.5"/>
	<rect x="134.6" y="156.2" class="st146" width="9.7" height="8.4"/>
	<rect x="147.6" y="156.2" class="st146" width="9" height="9"/>
	<rect x="160.4" y="156.2" class="st146" width="8.4" height="8.4"/>
	<circle class="st47" cx="152.4" cy="150.8" r="69.2"/>
</g>
</svg>
