<?xml version="1.0" encoding="utf-8"?>
<!-- Generator: Adobe Illustrator 22.1.0, SVG Export Plug-In . SVG Version: 6.00 Build 0)  -->
<svg version="1.1" id="Layer_1" xmlns="http://www.w3.org/2000/svg" xmlns:xlink="http://www.w3.org/1999/xlink" x="0px" y="0px"
	 viewBox="0 0 301.9 296" style="enable-background:new 0 0 301.9 296;" xml:space="preserve">
<style type="text/css">
	.st0{opacity:0.42;fill:url(#SVGID_1_);}
	.st1{fill:url(#SVGID_2_);}
	.st2{fill:#606161;}
	.st3{fill:url(#SVGID_3_);}
	.st4{opacity:0.42;fill:url(#SVGID_4_);}
	.st5{opacity:0.42;fill:url(#SVGID_5_);}
	.st6{fill:#ABABAB;}
	.st7{fill:#F1F2F2;}
	.st8{opacity:0.42;fill:url(#SVGID_6_);}
	.st9{opacity:0.42;fill:url(#SVGID_7_);}
	.st10{opacity:0.42;fill:url(#SVGID_8_);}
	.st11{opacity:0.42;fill:url(#SVGID_9_);}
	.st12{opacity:0.53;fill:#00A79D;}
	.st13{opacity:0.45;fill:#172F4D;}
	.st14{opacity:0.3;fill:#D3D3D3;}
	.st15{opacity:0.28;fill:#00A79D;}
	.st16{opacity:0.4;fill:#D3D3D3;}
	.st17{opacity:0.15;fill:#EE2A7B;}
	.st18{opacity:0.45;fill:#D3D3D3;}
	.st19{fill:#D3D3D3;}
	.st20{fill:#FFFFFF;}
	.st21{opacity:0.15;fill:#00A79D;}
	.st22{fill:#00A79D;}
	.st23{opacity:0.17;fill:#00A79D;}
	.st24{fill:#F9F9FA;}
	.st25{opacity:0.62;fill:#F7F7F7;}
	.st26{fill:#F8FCFD;}
	.st27{opacity:0.68;fill:#F8FCFD;}
	.st28{opacity:0.63;fill:#FFFFFF;}
	.st29{opacity:0.23;fill:#00A79D;}
	.st30{fill:#270E14;}
	.st31{opacity:0.33;fill:#00A79D;}
	.st32{fill:none;}
	.st33{opacity:0.35;fill:#00A79D;}
	.st34{opacity:0.62;fill:#EFF8F8;}
	.st35{fill:#1B75BC;}
	.st36{opacity:0.73;}
	.st37{fill:#66686C;}
	.st38{fill:#424D5C;}
	.st39{fill:#F8F8F8;}
	.st40{fill:#6EC4D6;}
	.st41{fill:#A5DCED;}
	.st42{fill:#EFEEED;}
	.st43{fill:#D7D7D6;}
	.st44{fill:#C8C8C8;}
	.st45{opacity:0.72;fill:#00A79D;}
	.st46{fill:none;stroke:#2B3990;stroke-miterlimit:10;stroke-dasharray:12.3981,12.3981;}
	.st47{fill:none;stroke:#2B3990;stroke-linecap:round;stroke-miterlimit:7;stroke-dasharray:3,0,0,0,0;}
	.st48{fill:#75787C;}
	.st49{fill:#41BEAC;}
	.st50{fill:#151515;}
	.st51{fill:#101010;}
	.st52{fill:#FECF0B;}
	.st53{fill:#232424;}
	.st54{fill:#F59820;}
	.st55{fill:#1A1A1A;}
	.st56{fill:#2D2E2E;}
	.st57{fill:#50C5F0;}
	.st58{fill:#FFD017;}
	.st59{fill:#69C7F1;}
	.st60{fill:#9CCA3F;}
	.st61{fill:#373737;}
	.st62{fill:#EED638;}
	.st63{fill:#F8F8F6;}
	.st64{fill:#FEFEFD;}
	.st65{fill:#F1F0EE;}
	.st66{opacity:0.57;}
	.st67{opacity:0.15;fill:#75787C;}
	.st68{fill:url(#SVGID_10_);}
	.st69{fill:#2E2E80;}
	.st70{fill:#356F83;}
	.st71{fill:#999999;}
	.st72{fill:#93A4A5;}
	.st73{fill:#FFD55E;}
	.st74{fill:#FEFEFE;}
	.st75{fill:#1FB579;}
	.st76{fill:#D86D28;}
	.st77{fill:#D2D1D1;}
	.st78{fill:#FDFEFD;}
	.st79{fill:#45B19B;}
	.st80{fill:#44B39C;}
	.st81{fill:#48B19B;}
	.st82{fill:#46AD97;}
	.st83{fill:#EAE9E8;}
	.st84{fill:#E9E9E8;}
	.st85{fill:#344E5D;}
	.st86{fill:#DF7B3E;}
	.st87{fill:#ECC64B;}
	.st88{fill:#EEC74B;}
	.st89{fill:#EFC84B;}
	.st90{fill:#4B626F;}
	.st91{fill:#E5C048;}
	.st92{fill:#4B606E;}
	.st93{fill:#E8EBEB;}
	.st94{fill:#FACD65;}
	.st95{fill:#364F5D;}
	.st96{fill:#4D616F;}
	.st97{fill:#7EC9CA;}
	.st98{fill:#E27C3D;}
	.st99{fill:#4B6370;}
	.st100{fill:#E27C3C;}
	.st101{fill:#E6E8E8;}
	.st102{fill:#E7E8E8;}
	.st103{fill:#E17B3D;}
	.st104{fill:#E27F42;}
	.st105{opacity:0.42;fill:url(#SVGID_11_);}
	.st106{opacity:0.7;}
	.st107{opacity:0.42;fill:url(#SVGID_12_);}
	.st108{opacity:0.42;fill:#FFFFFF;}
	.st109{opacity:0.47;fill:#7A8483;}
	.st110{opacity:0.21;fill:#FEFFFF;}
	.st111{fill:#393E46;}
	.st112{fill:#DAD8D5;}
	.st113{fill:#F2F2F2;}
	.st114{fill:#EF7245;}
	.st115{fill:#51C4D0;}
	.st116{fill:#FAFDFF;}
	.st117{fill:#E5B54E;}
	.st118{fill:#FDFEFC;}
	.st119{fill:#F8CF1E;}
	.st120{fill:#F8CF1B;}
	.st121{fill:#FDE0C3;}
	.st122{fill:#28434C;}
	.st123{fill:#79C1B0;}
	.st124{fill:#F0E65E;}
	.st125{fill:#DA615A;}
	.st126{fill:#F7CE18;}
	.st127{fill:#F8CB10;}
	.st128{fill:#C09945;}
	.st129{fill:#E8B84F;}
	.st130{fill:#CCCBC9;}
	.st131{fill:#415461;}
	.st132{fill:#F36F42;}
	.st133{fill:#FFFEFF;stroke:#FFFFFF;stroke-miterlimit:10;}
	.st134{fill:#F4F1EE;}
	.st135{fill:none;stroke:#FFFFFF;stroke-miterlimit:10;}
	.st136{fill:#F79B37;}
	.st137{fill:#F3C241;}
	.st138{fill:#BBC1C5;}
	.st139{fill:#FCFCFD;}
	.st140{fill:none;stroke:#2B3990;stroke-miterlimit:10;stroke-dasharray:11.9667,11.9667;}
	.st141{fill:#CECECE;}
	.st142{fill:#CACACA;}
	.st143{fill:#F9F9FA;stroke:#F7F9F9;stroke-miterlimit:10;}
	.st144{fill:#F37758;}
	.st145{fill:#5D6571;}
	.st146{fill:#FFFFFF;stroke:#424D5C;stroke-miterlimit:10;}
	.st147{fill:#619D9D;}
	.st148{fill:#5E9998;}
	.st149{fill:url(#SVGID_13_);}
	.st150{opacity:0.1;fill:#606161;}
	.st151{opacity:0.68;fill:#FFFFFF;}
	.st152{fill:#1F4D8E;}
	.st153{fill:#FEF7F5;}
	.st154{fill:#ED5940;}
	.st155{fill:#9C479B;}
	.st156{fill:#794D9F;}
	.st157{fill:#EC3F56;}
	.st158{fill:#AF4298;}
	.st159{fill:#E4376A;}
	.st160{fill:#D63981;}
	.st161{fill:#C73D94;}
	.st162{fill:#DF3874;}
	.st163{fill:#18AD4C;}
	.st164{opacity:0.68;fill:#FFFFFF;stroke:#727373;stroke-miterlimit:7;}
</style>
<g>
	<g>
		<path class="st38" d="M155,210.9c-35.4,0-64.1-28.8-64-64.3c0.1-35.2,28.8-63.7,64-63.7c35.4,0,64.1,28.8,64,64.3
			C218.9,182.4,190.3,210.9,155,210.9z M153.9,183.1c1.6,1.9,2.7,0,3.8-0.7c4.1-2.5,7.8-5.6,12.1-7.8c6.1-3,8.4-7.4,7-14
			c3.7-2.6,7.3-5.3,11.3-8.2c-3.9-2.4-7.3-4.6-10.8-6.7c-0.1-0.3-0.2-0.6-0.3-0.9c3.5-2.5,7.1-5,11.1-7.9c-4.4-2.9-8.4-5.6-12.4-8.3
			c-9.4-6.3-9.4-6.3-18.6,0.9c-1,0.2-2,0.3-2.9,0.5c-2.9-2-5.7-4-8.6-5.9c-1.1-0.7-2-1.5-3.5-0.5c-6.5,4.5-13.1,8.8-19.8,13.3
			c4,2.8,7.5,5.3,11,7.8c-0.2,0.3-0.3,0.6-0.3,0.9c-3.4,2.2-6.9,4.4-10.7,6.8c4.2,3,8,5.7,11.7,8.4c0.7,3.5-2,7.7,2.2,10.5
			C142,175.3,147.9,179.2,153.9,183.1z M111.2,129.6c1.2,1.1,2.6,2.4,3.8,3.5c1.4-1.4,2.7-2.7,3.8-3.7
			C116.7,125.4,114.1,125.8,111.2,129.6z M162.3,107.3c3.6,2.8,3.6,2.8,6.8-0.2C166.7,103.1,164.4,103.4,162.3,107.3z"/>
		<path class="st39" d="M133.8,161c-3.8-2.7-7.5-5.4-11.7-8.4c3.8-2.4,7.3-4.6,10.7-6.8c5.4,0.6,8.5,5.4,13.3,7.1
			c2.6,2.5,6.8,3,8.2,6.9c-0.1,0.1-0.3,0.1-0.4,0.2C147.4,166.4,140.8,167.9,133.8,161z"/>
		<path class="st39" d="M133.1,144.9c-3.5-2.5-7-5-11-7.8c6.7-4.5,13.3-8.8,19.8-13.3c1.5-1,2.5-0.3,3.5,0.5c2.9,2,5.7,4,8.6,5.9
			c0,0.5,0,1,0,1.5C147,136.1,140.1,140.5,133.1,144.9z"/>
		<path class="st39" d="M157,129.7c9.2-7.2,9.2-7.2,18.6-0.9c4,2.7,8,5.3,12.4,8.3c-4,2.8-7.5,5.3-11.1,7.9
			c-5.9-3.9-11.8-8-17.9-11.7C157.5,132.2,157,131.3,157,129.7z"/>
		<path class="st39" d="M177.3,145.8c3.4,2.1,6.9,4.3,10.8,6.7c-4,2.9-7.7,5.5-11.4,8.2c-7.3,7.3-14.1,5.3-20.8-0.9
			c1.9-4,6.9-4.5,9.3-7.9C169.8,151.1,172.5,146.5,177.3,145.8z"/>
		<path class="st40" d="M155.9,159.9c6.7,6.2,13.6,8.1,20.8,0.9c1.4,6.5-0.9,10.9-7,14c-4.3,2.1-8,5.2-12.1,7.8
			c-1.1,0.7-2.2,2.5-3.8,0.7c1.8-1.3,1.2-3.3,1.2-5c0.1-6,0.1-12.1,0.2-18.1C155.5,159.9,155.7,159.9,155.9,159.9z"/>
		<path class="st41" d="M155.3,160c-0.1,6-0.1,12.1-0.2,18.1c0,1.7,0.6,3.7-1.2,5c-6-3.9-11.9-7.8-17.9-11.7
			c-4.2-2.7-1.5-7-2.2-10.5c7,7,13.6,5.4,20-0.9c0.1-0.1,0.3-0.1,0.4-0.2C154.6,159.9,154.9,159.9,155.3,160z"/>
		<path class="st42" d="M177.3,145.8c-4.7,0.6-7.4,5.3-12.1,6.1c-3.2-2.4-6.1-5.1-10.1-6.1c-0.6-4.7,1.1-9.6-1.1-14.1
			c0-0.5,0-1,0-1.5c1-0.2,2-0.3,2.9-0.5c0,1.6,0.6,2.5,2.1,3.5c6.1,3.7,11.9,7.8,17.9,11.7C177.1,145.2,177.2,145.5,177.3,145.8z"/>
		<path class="st43" d="M154,131.7c2.2,4.6,0.5,9.4,1.1,14.1c-3.7,1.4-7.7,2.6-9,7c-4.8-1.7-7.9-6.5-13.3-7.1c0-0.3,0.1-0.6,0.3-0.9
			C140.1,140.5,147,136.1,154,131.7z"/>
		<path class="st43" d="M111.2,129.6c2.9-3.8,5.5-4.2,7.6-0.2c-1,1-2.4,2.3-3.8,3.7C113.8,132,112.4,130.6,111.2,129.6z"/>
		<path class="st43" d="M162.3,107.3c2.1-3.9,4.4-4.2,6.8-0.2C165.8,110.1,165.8,110.1,162.3,107.3z"/>
		<path class="st44" d="M146.1,152.9c1.4-4.5,5.3-5.6,9-7c4,1,6.9,3.7,10.1,6.1c-2.4,3.4-7.4,3.9-9.3,7.9c-0.2,0-0.4,0.1-0.6,0.1
			c-0.3,0-0.7-0.1-1-0.1C152.9,155.9,148.7,155.4,146.1,152.9z"/>
	</g>
	<circle class="st47" cx="155.3" cy="147.3" r="69.2"/>
</g>
</svg>
