<?xml version="1.0" encoding="utf-8"?>
<!-- Generator: Adobe Illustrator 22.1.0, SVG Export Plug-In . SVG Version: 6.00 Build 0)  -->
<svg version="1.1" id="Layer_1" xmlns="http://www.w3.org/2000/svg" xmlns:xlink="http://www.w3.org/1999/xlink" x="0px" y="0px"
	 viewBox="0 0 301.9 296" style="enable-background:new 0 0 301.9 296;" xml:space="preserve">
<style type="text/css">
	.st0{opacity:0.42;fill:url(#SVGID_1_);}
	.st1{fill:url(#SVGID_2_);}
	.st2{fill:#606161;}
	.st3{fill:url(#SVGID_3_);}
	.st4{opacity:0.42;fill:url(#SVGID_4_);}
	.st5{opacity:0.42;fill:url(#SVGID_5_);}
	.st6{fill:#ABABAB;}
	.st7{fill:#F1F2F2;}
	.st8{opacity:0.42;fill:url(#SVGID_6_);}
	.st9{opacity:0.42;fill:url(#SVGID_7_);}
	.st10{opacity:0.42;fill:url(#SVGID_8_);}
	.st11{opacity:0.42;fill:url(#SVGID_9_);}
	.st12{opacity:0.53;fill:#00A79D;}
	.st13{opacity:0.45;fill:#172F4D;}
	.st14{opacity:0.3;fill:#D3D3D3;}
	.st15{opacity:0.28;fill:#00A79D;}
	.st16{opacity:0.4;fill:#D3D3D3;}
	.st17{opacity:0.15;fill:#EE2A7B;}
	.st18{opacity:0.45;fill:#D3D3D3;}
	.st19{fill:#D3D3D3;}
	.st20{fill:#FFFFFF;}
	.st21{opacity:0.15;fill:#00A79D;}
	.st22{fill:#00A79D;}
	.st23{opacity:0.17;fill:#00A79D;}
	.st24{fill:#F9F9FA;}
	.st25{opacity:0.62;fill:#F7F7F7;}
	.st26{fill:#F8FCFD;}
	.st27{opacity:0.68;fill:#F8FCFD;}
	.st28{opacity:0.63;fill:#FFFFFF;}
	.st29{opacity:0.23;fill:#00A79D;}
	.st30{fill:#270E14;}
	.st31{opacity:0.33;fill:#00A79D;}
	.st32{fill:none;}
	.st33{opacity:0.35;fill:#00A79D;}
	.st34{opacity:0.62;fill:#EFF8F8;}
	.st35{fill:#1B75BC;}
	.st36{opacity:0.73;}
	.st37{fill:#66686C;}
	.st38{fill:#424D5C;}
	.st39{fill:#F8F8F8;}
	.st40{fill:#6EC4D6;}
	.st41{fill:#A5DCED;}
	.st42{fill:#EFEEED;}
	.st43{fill:#D7D7D6;}
	.st44{fill:#C8C8C8;}
	.st45{opacity:0.72;fill:#00A79D;}
	.st46{fill:none;stroke:#2B3990;stroke-miterlimit:10;stroke-dasharray:12.3981,12.3981;}
	.st47{fill:none;stroke:#2B3990;stroke-linecap:round;stroke-miterlimit:7;stroke-dasharray:3,0,0,0,0;}
	.st48{fill:#75787C;}
	.st49{fill:#41BEAC;}
	.st50{fill:#151515;}
	.st51{fill:#101010;}
	.st52{fill:#FECF0B;}
	.st53{fill:#232424;}
	.st54{fill:#F59820;}
	.st55{fill:#1A1A1A;}
	.st56{fill:#2D2E2E;}
	.st57{fill:#50C5F0;}
	.st58{fill:#FFD017;}
	.st59{fill:#69C7F1;}
	.st60{fill:#9CCA3F;}
	.st61{fill:#373737;}
	.st62{fill:#EED638;}
	.st63{fill:#F8F8F6;}
	.st64{fill:#FEFEFD;}
	.st65{fill:#F1F0EE;}
	.st66{opacity:0.57;}
	.st67{opacity:0.15;fill:#75787C;}
	.st68{fill:url(#SVGID_10_);}
	.st69{fill:#2E2E80;}
	.st70{fill:#356F83;}
	.st71{fill:#999999;}
	.st72{fill:#93A4A5;}
	.st73{fill:#FFD55E;}
	.st74{fill:#FEFEFE;}
	.st75{fill:#1FB579;}
	.st76{fill:#D86D28;}
	.st77{fill:#D2D1D1;}
	.st78{fill:#FDFEFD;}
	.st79{fill:#45B19B;}
	.st80{fill:#44B39C;}
	.st81{fill:#48B19B;}
	.st82{fill:#46AD97;}
	.st83{fill:#EAE9E8;}
	.st84{fill:#E9E9E8;}
	.st85{fill:#344E5D;}
	.st86{fill:#DF7B3E;}
	.st87{fill:#ECC64B;}
	.st88{fill:#EEC74B;}
	.st89{fill:#EFC84B;}
	.st90{fill:#4B626F;}
	.st91{fill:#E5C048;}
	.st92{fill:#4B606E;}
	.st93{fill:#E8EBEB;}
	.st94{fill:#FACD65;}
	.st95{fill:#364F5D;}
	.st96{fill:#4D616F;}
	.st97{fill:#7EC9CA;}
	.st98{fill:#E27C3D;}
	.st99{fill:#4B6370;}
	.st100{fill:#E27C3C;}
	.st101{fill:#E6E8E8;}
	.st102{fill:#E7E8E8;}
	.st103{fill:#E17B3D;}
	.st104{fill:#E27F42;}
	.st105{opacity:0.42;fill:url(#SVGID_11_);}
	.st106{opacity:0.7;}
	.st107{opacity:0.42;fill:url(#SVGID_12_);}
	.st108{opacity:0.42;fill:#FFFFFF;}
	.st109{opacity:0.47;fill:#7A8483;}
	.st110{opacity:0.21;fill:#FEFFFF;}
	.st111{fill:#393E46;}
	.st112{fill:#DAD8D5;}
	.st113{fill:#F2F2F2;}
	.st114{fill:#EF7245;}
	.st115{fill:#51C4D0;}
	.st116{fill:#FAFDFF;}
	.st117{fill:#E5B54E;}
	.st118{fill:#FDFEFC;}
	.st119{fill:#F8CF1E;}
	.st120{fill:#F8CF1B;}
	.st121{fill:#FDE0C3;}
	.st122{fill:#28434C;}
	.st123{fill:#79C1B0;}
	.st124{fill:#F0E65E;}
	.st125{fill:#DA615A;}
	.st126{fill:#F7CE18;}
	.st127{fill:#F8CB10;}
	.st128{fill:#C09945;}
	.st129{fill:#E8B84F;}
	.st130{fill:#CCCBC9;}
	.st131{fill:#415461;}
	.st132{fill:#F36F42;}
	.st133{fill:#FFFEFF;stroke:#FFFFFF;stroke-miterlimit:10;}
	.st134{fill:#F4F1EE;}
	.st135{fill:none;stroke:#FFFFFF;stroke-miterlimit:10;}
	.st136{fill:#F79B37;}
	.st137{fill:#F3C241;}
	.st138{fill:#BBC1C5;}
	.st139{fill:#FCFCFD;}
	.st140{fill:none;stroke:#2B3990;stroke-miterlimit:10;stroke-dasharray:11.9667,11.9667;}
	.st141{fill:#CECECE;}
	.st142{fill:#CACACA;}
	.st143{fill:#F9F9FA;stroke:#F7F9F9;stroke-miterlimit:10;}
	.st144{fill:#F37758;}
	.st145{fill:#5D6571;}
	.st146{fill:#FFFFFF;stroke:#424D5C;stroke-miterlimit:10;}
	.st147{fill:#619D9D;}
	.st148{fill:#5E9998;}
	.st149{fill:url(#SVGID_13_);}
	.st150{opacity:0.1;fill:#606161;}
	.st151{opacity:0.68;fill:#FFFFFF;}
	.st152{fill:#1F4D8E;}
	.st153{fill:#FEF7F5;}
	.st154{fill:#ED5940;}
	.st155{fill:#9C479B;}
	.st156{fill:#794D9F;}
	.st157{fill:#EC3F56;}
	.st158{fill:#AF4298;}
	.st159{fill:#E4376A;}
	.st160{fill:#D63981;}
	.st161{fill:#C73D94;}
	.st162{fill:#DF3874;}
	.st163{fill:#18AD4C;}
	.st164{opacity:0.68;fill:#FFFFFF;stroke:#727373;stroke-miterlimit:7;}
</style>
<g>
	<g>
		<rect x="123.9" y="124.4" class="st114" width="17.9" height="47.3"/>
		<rect x="142.7" y="122.6" class="st114" width="16.9" height="2.9"/>
		<rect x="140.9" y="123.7" class="st114" width="3.7" height="3.7"/>
		<path class="st73" d="M213.6,155.8c-0.1,34.9-28.5,63.1-63.2,62.9c-34.5-0.2-62.4-28.6-62.3-63.3c0.1-34.9,28.5-63.1,63.2-62.9
			C185.7,92.7,213.7,121.1,213.6,155.8z M159.6,120.2c1-3.4-0.8-3.8-3.6-3.8c-10.4,0.1-20.8,0.2-31.2,0c-3.6-0.1-4.7,1.2-4,4.6
			c-0.1,16.5-0.1,33.1-0.3,49.6c0,2.8,1.2,3.7,3.9,3.7c5.7-0.1,11.4-0.2,17.1-0.3c0.1,1.5,0.3,2.9,0.2,4.4c-0.3,3.4,1.2,4.7,4.5,4.7
			c10.1-0.1,20.2-0.1,30.3,0c3.3,0,4.7-1.4,4.6-4.7c-0.1-16.1-0.1-32.1,0-48.2c0-3.3-1.3-4.7-4.6-4.7c-5.5,0-11.1-0.2-16.6-0.3
			c-0.1-1.4-0.2-2.7-0.3-4.1C159.7,120.7,159.7,120.4,159.6,120.2z M150.9,194.9c8.8,0,17.6-0.1,26.4,0.1c3.2,0.1,3.8-1.3,3.8-4.1
			c0-2.8-0.2-4.6-3.8-4.6c-4.5,0.1-8.9,0.4-13.4,0.3c-13.1-0.4-26.2-0.1-39.3-0.3c-3.3,0-4.2,1.1-4.1,4.3c0.1,3,0.5,4.5,4,4.4
			C133.3,194.8,142.1,194.9,150.9,194.9z"/>
		<path class="st114" d="M159.6,120.5c0.1,1.4,0.2,2.7,0.3,4.1c-5.2,0-10.4,0-15.6,0c-5.8,0-11.7,0-18.1,0c1.6,2.7,3.8,1.1,5.2,2.2
			c-0.2,1.3-2.7,3.9,0.7,3.6c3.1-0.3,6.7,0.2,9.4-2.4c0.3,2.2,0.4,4.4-0.1,6.6c-2.9-0.4-5.7-0.8-8.6-1.1c-1.5-0.2-2.5,0.6-2.4,2.2
			c0,1.6,1.2,1.7,2.4,1.7c2.8,0,5.6,0,8.4,0c0.2,2.8,0.1,1.7,0.4,4.5l-1.2,0.2c0.4-1.3,0.1-2-1.5-2c-4.1,0.1-8.2,0-12.8,0
			c1.5,1.6,3.5,0.2,4.3,1.8c-0.7,2,2,2.3,1.9,3.7c0,2.2,0,2,2,2.4c2.9,0.6,2.7-3,4.9-3.1c2-0.1,2.8,0.8,2.7,2.9
			c-0.2,3-0.2,6.1-0.3,9.1c-5.2,0.1-10.4-0.5-16.4,0.4c5.7,3.3,10.5,6.3,16.4,5.6c0.3,3.4,0.5,6.8-0.1,10.2
			c-5.7,0.1-11.4,0.1-17.1,0.3c-2.6,0.1-3.9-0.9-3.9-3.7c0.1-16,0.2-32,0.2-48c0.7-0.7,1.1-1.1,1.7-1.7L159.6,120.5z M139.7,166.7
			c-4.3,0-8.7,0-13.6,0C130.9,167.9,135.2,168.8,139.7,166.7z"/>
		<path class="st20" d="M122.5,120.8c-0.6,0-1.2,0-1.7,0.1c-0.7-3.3,0.4-4.6,4-4.6c10.4,0.2,20.8,0.1,31.2,0c2.8,0,4.6,0.4,3.6,3.8
			c-6.7,0-13.4-0.2-20.1,0C133.8,120.3,128.1,119.3,122.5,120.8z"/>
		<path class="st112" d="M122.5,120.8c5.6-1.5,11.3-0.5,17-0.6c6.7-0.2,13.4,0,20.1,0c0.1,0.3,0.1,0.6,0,0.9
			C147.2,120.9,134.9,120.9,122.5,120.8z"/>
		<path class="st130" d="M144.2,175.3c11.3,0,22.7,0,34,0c-5.8,1.9-11.8,0.7-17.8,0.7C155,176.1,149.5,177.1,144.2,175.3z"/>
		<path class="st115" d="M162.1,145.9c0.9,1.3,2.3,1.1,3.6,1c2.9-0.2,3.6,1.3,3.6,3.9c0,2.8-1.1,3.7-3.8,3.7c-2.7,0-4-0.7-3.7-3.6
			c0.1-1.3,0.6-3.1-1.4-3.7c0,0,0.1,0.1,0.1,0.1c-0.5-1.7-2-1.6-3.2-1.4c-3.4,0.4-3.5-1.7-3.5-4.2c0-2.6,1.5-2.7,3.4-2.8
			c2.8-0.2,3.7,0.9,3.6,3.6C160.6,143.6,159.9,145.5,162.1,145.9C162.1,145.9,162.1,145.9,162.1,145.9z"/>
		<path class="st73" d="M152.3,150.5c0.4,3.1-1,3.9-3.6,3.9c-2.8,0-3.6-1.1-3.6-3.8c0-2.9,1-3.6,3.7-3.6
			C151.5,146.9,152.8,147.9,152.3,150.5z"/>
		<path class="st114" d="M170.4,150.2c-0.6-3.4,1.6-3.1,3.9-3.2c3.5-0.2,2.8,2.1,3,4.2c0.3,3.1-1.7,2.8-3.7,2.9
			C170.4,154.4,170.1,152.7,170.4,150.2z"/>
		<path class="st131" d="M160.4,147.2c0,0-0.1-0.1-0.1-0.1c-0.2,2.3,2.1,5.3-1.4,6.6c-1.4,0.5-3.8,1.1-4.9-0.7
			c-0.7-1.2-0.5-3.2-0.2-4.7c0.5-2.3,2.7-1.1,4.1-1.3C158.7,147,159.6,147.2,160.4,147.2z"/>
		<path class="st130" d="M157.2,167.5c2.5-0.4,3.4,0.7,3.5,3.3c0.1,2.8-1,3.6-3.7,3.6c-2.7,0-3.2-1.3-3.2-3.6
			C153.7,168.3,154.7,167.2,157.2,167.5z"/>
		<path class="st114" d="M151.9,142.2c0.7,3.4-1.1,3.5-3.5,3.7c-3.2,0.2-3.1-1.6-3.2-3.9c-0.1-2.8,1.2-3.1,3.5-3.2
			C151.4,138.7,152.7,139.5,151.9,142.2z"/>
		<path class="st73" d="M162.1,145.9C162.1,145.9,162.1,145.9,162.1,145.9c0.6-2.6-2.9-7,3.3-7.1c2.6,0,3.4,0.9,3.3,3.4
			c0,2.4-0.5,3.8-3.2,3.5C164.4,145.7,163.2,145.8,162.1,145.9z"/>
		<path class="st131" d="M177.1,142.3c0.8,3.5-1.3,3.4-3.6,3.6c-3.2,0.3-3.1-1.5-3.2-3.8c-0.2-3.1,1.3-3.2,3.7-3.3
			C177,138.7,177.8,139.9,177.1,142.3z"/>
		<path class="st132" d="M153.8,159.3c-0.7-3.4,1-3.7,3.5-3.7c2.6,0,3.3,0.8,3.3,3.4c0,2.6-0.6,3.8-3.5,3.7
			C154.6,162.5,152.9,162.1,153.8,159.3z"/>
		<path class="st73" d="M173.9,162.4c-3,0.6-3.5-0.9-3.6-3.3c-0.1-2.9,1-3.6,3.7-3.6c2.6,0,3.3,1,3.3,3.5
			C177.3,161.7,176.6,163.2,173.9,162.4z"/>
		<path class="st114" d="M148.8,174.3c-2.8,0.6-3.6-0.6-3.7-3.4c0-2.8,1-3.6,3.6-3.5c2.5,0,3.4,0.7,3.3,3.3
			C152,173.1,151.9,175,148.8,174.3z"/>
		<path class="st130" d="M168.5,159.2c0.2,2.1-0.4,3.4-2.9,3.4c-2.4,0-3.1-1-3.1-3.3c0-2.3,0.4-3.7,3.2-3.7
			C168.3,155.7,168.6,157.1,168.5,159.2z"/>
		<line class="st133" x1="123.9" y1="125.1" x2="159.4" y2="125.1"/>
		<path class="st134" d="M144.2,175.3c0-12.8,0-25.6-0.1-38.4c9.8,0,19.5,0.2,29.3-0.1c4-0.1,4.9,1.3,4.8,5.1
			c-0.2,11.1,0,22.3,0,33.4c0,0,0,0.1,0,0.1C166.9,175.3,155.5,175.3,144.2,175.3z M160.3,147.2c2,0.6,1.5,2.4,1.4,3.7
			c-0.2,2.9,1.1,3.6,3.7,3.6c2.7,0,3.9-0.9,3.8-3.7c0-2.6-0.7-4.1-3.6-3.9c-1.2,0.1-2.7,0.4-3.6-1c1.1,0,2.3-0.2,3.4-0.1
			c2.8,0.3,3.2-1.2,3.2-3.5c0-2.5-0.7-3.5-3.3-3.4c-6.2,0.1-2.7,4.5-3.3,7.1c-2.2-0.4-1.5-2.3-1.4-3.5c0.2-2.7-0.8-3.8-3.6-3.6
			c-1.9,0.1-3.5,0.2-3.4,2.8c0,2.5,0,4.6,3.5,4.2c1.2-0.1,2.7-0.2,3.2,1.4c-0.8,0-1.6-0.2-2.4-0.1c-1.4,0.2-3.5-1-4.1,1.3
			c-0.4,1.5-0.5,3.5,0.2,4.7c1,1.7,3.5,1.2,4.9,0.7C162.3,152.5,160.1,149.5,160.3,147.2z M152.3,150.5c0.4-2.6-0.8-3.5-3.6-3.6
			c-2.7,0-3.8,0.8-3.7,3.6c0,2.7,0.9,3.8,3.6,3.8C151.4,154.3,152.8,153.5,152.3,150.5z M170.4,150.2c-0.4,2.4,0,4.2,3.1,3.9
			c2-0.2,4,0.2,3.7-2.9c-0.2-2.1,0.5-4.4-3-4.2C172.1,147.2,169.8,146.9,170.4,150.2z M157.2,167.5c-2.5-0.4-3.5,0.7-3.4,3.3
			c0,2.3,0.5,3.6,3.2,3.6c2.7,0,3.8-0.8,3.7-3.6C160.6,168.2,159.7,167.2,157.2,167.5z M151.9,142.2c0.8-2.7-0.6-3.4-3.3-3.4
			c-2.3,0-3.6,0.4-3.5,3.2c0.1,2.3,0.1,4.1,3.2,3.9C150.8,145.7,152.6,145.5,151.9,142.2z M177.1,142.3c0.7-2.4-0.1-3.6-3.1-3.5
			c-2.4,0.1-4,0.1-3.7,3.3c0.2,2.3,0.1,4.1,3.2,3.8C175.8,145.6,177.9,145.8,177.1,142.3z M153.8,159.3c-1,2.8,0.7,3.2,3.3,3.3
			c2.9,0.1,3.5-1.1,3.5-3.7c0-2.5-0.7-3.4-3.3-3.4C154.8,155.6,153.1,155.9,153.8,159.3z M173.9,162.4c2.7,0.8,3.4-0.7,3.4-3.4
			c0-2.5-0.7-3.5-3.3-3.5c-2.7,0-3.8,0.7-3.7,3.6C170.4,161.5,170.9,163,173.9,162.4z M148.8,174.3c3.2,0.7,3.3-1.2,3.3-3.6
			c0.1-2.6-0.9-3.3-3.3-3.3c-2.7,0-3.7,0.7-3.6,3.5C145.1,173.7,146,174.9,148.8,174.3z M168.5,159.2c0.2-2.1-0.2-3.5-2.8-3.6
			c-2.8-0.1-3.2,1.4-3.2,3.7c0,2.2,0.7,3.3,3.1,3.3C168.1,162.5,168.7,161.3,168.5,159.2z"/>
		<path class="st111" d="M141.4,135.2c0.5-2.2,0.4-4.4,0.1-6.6c0.2-1.7,1.3-2.7,2.7-3.4c5.2,0,10.4,0,15.6,0
			c5.5,0.1,11.1,0.3,16.6,0.3c3.3,0,4.6,1.4,4.6,4.7c-0.1,16.1-0.1,32.1,0,48.2c0,3.3-1.3,4.8-4.6,4.7c-10.1-0.1-20.2-0.1-30.3,0
			c-3.3,0-4.8-1.3-4.5-4.7c0.1-1.5-0.1-2.9-0.2-4.4c0.6-3.4,0.4-6.8,0.1-10.2c0-2,0-4,0-6c0.1-3,0.1-6.1,0.3-9.1
			c0.1-2.1-0.7-3-2.7-2.9c0.5-1.3,2.9-1,2.4-3.1c0-1.5,0-3,0-4.5C141.5,137.1,141.5,136.2,141.4,135.2z M178.2,175.3L178.2,175.3
			c1.4-14,0-28.1,0.8-42.1c0.1-2.6-1.8-2.2-3.4-2.2c-8.8,0-17.6,0.3-26.3-0.1c-5.1-0.3-6.3,1.6-5.2,6c0,12.8,0,25.6,0.1,38.4
			c5.3,1.8,10.8,0.8,16.3,0.7C166.4,176,172.4,177.2,178.2,175.3z"/>
		<path class="st130" d="M178.2,175.3c0-11.1-0.2-22.3,0-33.4c0.1-3.7-0.8-5.2-4.8-5.1c-9.8,0.3-19.5,0.1-29.3,0.1
			c-1-4.4,0.1-6.3,5.2-6c8.8,0.5,17.5,0.1,26.3,0.1c1.6,0,3.5-0.3,3.4,2.2C178.2,147.2,179.6,161.3,178.2,175.3z"/>
		<rect x="139.1" y="125.6" class="st114" width="2.6" height="47.8"/>
		<g>
			<line class="st133" x1="127" y1="128.1" x2="159.4" y2="128.1"/>
			<line class="st133" x1="123.9" y1="130.9" x2="159.4" y2="130.9"/>
			<line class="st133" x1="127" y1="133.8" x2="159.4" y2="133.8"/>
			<line class="st133" x1="123.9" y1="136.5" x2="159.4" y2="136.5"/>
			<line class="st133" x1="127" y1="139.2" x2="159.5" y2="139.2"/>
			<line class="st133" x1="124" y1="142.3" x2="159.5" y2="142.3"/>
			<line class="st133" x1="126.8" y1="145.1" x2="159.5" y2="145.1"/>
			<line class="st133" x1="124" y1="148" x2="159.5" y2="148"/>
			<line class="st133" x1="126.8" y1="150.7" x2="159.5" y2="150.7"/>
		</g>
		<rect x="126.8" y="153.6" class="st135" width="8.3" height="8.9"/>
		<rect x="137.3" y="153.6" class="st135" width="8.8" height="8.9"/>
		<rect x="141.8" y="127.6" class="st111" width="2.3" height="47.1"/>
		<rect x="143.4" y="126.8" class="st111" width="35.6" height="5.2"/>
		<rect x="178.2" y="131.3" class="st111" width="1.2" height="44.5"/>
		<rect x="144.2" y="175.3" class="st111" width="34.4" height="3.1"/>
		<rect x="120.5" y="185.3" class="st114" width="61.2" height="9.7"/>
		<path class="st130" d="M177.4,176.1H145c-0.4,0-0.8-0.3-0.8-0.8v-43.5c0-0.4,0.3-0.8,0.8-0.8h32.5c0.4,0,0.8,0.3,0.8,0.8v43.5
			C178.2,175.8,177.9,176.1,177.4,176.1z"/>
		<rect x="144.6" y="136.5" class="st20" width="33.5" height="38.4"/>
		<g>
			<rect x="147.9" y="139.2" class="st114" width="6.3" height="6.3"/>
			<rect x="158.1" y="139.2" class="st123" width="6.3" height="6.3"/>
			<rect x="168.5" y="139.2" class="st73" width="6.3" height="6.3"/>
			<rect x="147.8" y="148.6" class="st38" width="6.3" height="6.3"/>
			<rect x="158" y="148.6" class="st114" width="6.3" height="6.3"/>
			<rect x="168.4" y="148.6" class="st125" width="6.3" height="6.3"/>
			<rect x="147.8" y="158.4" class="st123" width="6.3" height="6.3"/>
			<rect x="158" y="158.4" class="st73" width="6.3" height="6.3"/>
			<rect x="168.4" y="158.4" class="st38" width="6.3" height="6.3"/>
		</g>
		<circle class="st20" cx="123.7" cy="190.1" r="1"/>
		<circle class="st20" cx="161.5" cy="179.7" r="1.9"/>
	</g>
	<circle class="st47" cx="151" cy="155.6" r="69.2"/>
</g>
</svg>
