<?xml version="1.0" encoding="utf-8"?>
<!-- Generator: Adobe Illustrator 22.1.0, SVG Export Plug-In . SVG Version: 6.00 Build 0)  -->
<svg version="1.1" id="Layer_1" xmlns="http://www.w3.org/2000/svg" xmlns:xlink="http://www.w3.org/1999/xlink" x="0px" y="0px"
	 viewBox="0 0 301.9 296" style="enable-background:new 0 0 301.9 296;" xml:space="preserve">
<style type="text/css">
	.st0{opacity:0.42;fill:url(#SVGID_1_);}
	.st1{fill:url(#SVGID_2_);}
	.st2{fill:#606161;}
	.st3{fill:url(#SVGID_3_);}
	.st4{opacity:0.42;fill:url(#SVGID_4_);}
	.st5{opacity:0.42;fill:url(#SVGID_5_);}
	.st6{fill:#ABABAB;}
	.st7{fill:#F1F2F2;}
	.st8{opacity:0.42;fill:url(#SVGID_6_);}
	.st9{opacity:0.42;fill:url(#SVGID_7_);}
	.st10{opacity:0.42;fill:url(#SVGID_8_);}
	.st11{opacity:0.42;fill:url(#SVGID_9_);}
	.st12{opacity:0.53;fill:#00A79D;}
	.st13{opacity:0.45;fill:#172F4D;}
	.st14{opacity:0.3;fill:#D3D3D3;}
	.st15{opacity:0.28;fill:#00A79D;}
	.st16{opacity:0.4;fill:#D3D3D3;}
	.st17{opacity:0.15;fill:#EE2A7B;}
	.st18{opacity:0.45;fill:#D3D3D3;}
	.st19{fill:#D3D3D3;}
	.st20{fill:#FFFFFF;}
	.st21{opacity:0.15;fill:#00A79D;}
	.st22{fill:#00A79D;}
	.st23{opacity:0.17;fill:#00A79D;}
	.st24{fill:#F9F9FA;}
	.st25{opacity:0.62;fill:#F7F7F7;}
	.st26{fill:#F8FCFD;}
	.st27{opacity:0.68;fill:#F8FCFD;}
	.st28{opacity:0.63;fill:#FFFFFF;}
	.st29{opacity:0.23;fill:#00A79D;}
	.st30{fill:#270E14;}
	.st31{opacity:0.33;fill:#00A79D;}
	.st32{fill:none;}
	.st33{opacity:0.35;fill:#00A79D;}
	.st34{opacity:0.62;fill:#EFF8F8;}
	.st35{fill:#1B75BC;}
	.st36{opacity:0.73;}
	.st37{fill:#66686C;}
	.st38{fill:#424D5C;}
	.st39{fill:#F8F8F8;}
	.st40{fill:#6EC4D6;}
	.st41{fill:#A5DCED;}
	.st42{fill:#EFEEED;}
	.st43{fill:#D7D7D6;}
	.st44{fill:#C8C8C8;}
	.st45{opacity:0.72;fill:#00A79D;}
	.st46{fill:none;stroke:#2B3990;stroke-miterlimit:10;stroke-dasharray:12.3981,12.3981;}
	.st47{fill:none;stroke:#2B3990;stroke-linecap:round;stroke-miterlimit:7;stroke-dasharray:3,0,0,0,0;}
	.st48{fill:#75787C;}
	.st49{fill:#41BEAC;}
	.st50{fill:#151515;}
	.st51{fill:#101010;}
	.st52{fill:#FECF0B;}
	.st53{fill:#232424;}
	.st54{fill:#F59820;}
	.st55{fill:#1A1A1A;}
	.st56{fill:#2D2E2E;}
	.st57{fill:#50C5F0;}
	.st58{fill:#FFD017;}
	.st59{fill:#69C7F1;}
	.st60{fill:#9CCA3F;}
	.st61{fill:#373737;}
	.st62{fill:#EED638;}
	.st63{fill:#F8F8F6;}
	.st64{fill:#FEFEFD;}
	.st65{fill:#F1F0EE;}
	.st66{opacity:0.57;}
	.st67{opacity:0.15;fill:#75787C;}
	.st68{fill:url(#SVGID_10_);}
	.st69{fill:#2E2E80;}
	.st70{fill:#356F83;}
	.st71{fill:#999999;}
	.st72{fill:#93A4A5;}
	.st73{fill:#FFD55E;}
	.st74{fill:#FEFEFE;}
	.st75{fill:#1FB579;}
	.st76{fill:#D86D28;}
	.st77{fill:#D2D1D1;}
	.st78{fill:#FDFEFD;}
	.st79{fill:#45B19B;}
	.st80{fill:#44B39C;}
	.st81{fill:#48B19B;}
	.st82{fill:#46AD97;}
	.st83{fill:#EAE9E8;}
	.st84{fill:#E9E9E8;}
	.st85{fill:#344E5D;}
	.st86{fill:#DF7B3E;}
	.st87{fill:#ECC64B;}
	.st88{fill:#EEC74B;}
	.st89{fill:#EFC84B;}
	.st90{fill:#4B626F;}
	.st91{fill:#E5C048;}
	.st92{fill:#4B606E;}
	.st93{fill:#E8EBEB;}
	.st94{fill:#FACD65;}
	.st95{fill:#364F5D;}
	.st96{fill:#4D616F;}
	.st97{fill:#7EC9CA;}
	.st98{fill:#E27C3D;}
	.st99{fill:#4B6370;}
	.st100{fill:#E27C3C;}
	.st101{fill:#E6E8E8;}
	.st102{fill:#E7E8E8;}
	.st103{fill:#E17B3D;}
	.st104{fill:#E27F42;}
	.st105{opacity:0.42;fill:url(#SVGID_11_);}
	.st106{opacity:0.7;}
	.st107{opacity:0.42;fill:url(#SVGID_12_);}
	.st108{opacity:0.42;fill:#FFFFFF;}
	.st109{opacity:0.47;fill:#7A8483;}
	.st110{opacity:0.21;fill:#FEFFFF;}
	.st111{fill:#393E46;}
	.st112{fill:#DAD8D5;}
	.st113{fill:#F2F2F2;}
	.st114{fill:#EF7245;}
	.st115{fill:#51C4D0;}
	.st116{fill:#FAFDFF;}
	.st117{fill:#E5B54E;}
	.st118{fill:#FDFEFC;}
	.st119{fill:#F8CF1E;}
	.st120{fill:#F8CF1B;}
	.st121{fill:#FDE0C3;}
	.st122{fill:#28434C;}
	.st123{fill:#79C1B0;}
	.st124{fill:#F0E65E;}
	.st125{fill:#DA615A;}
	.st126{fill:#F7CE18;}
	.st127{fill:#F8CB10;}
	.st128{fill:#C09945;}
	.st129{fill:#E8B84F;}
	.st130{fill:#CCCBC9;}
	.st131{fill:#415461;}
	.st132{fill:#F36F42;}
	.st133{fill:#FFFEFF;stroke:#FFFFFF;stroke-miterlimit:10;}
	.st134{fill:#F4F1EE;}
	.st135{fill:none;stroke:#FFFFFF;stroke-miterlimit:10;}
	.st136{fill:#F79B37;}
	.st137{fill:#F3C241;}
	.st138{fill:#BBC1C5;}
	.st139{fill:#FCFCFD;}
	.st140{fill:none;stroke:#2B3990;stroke-miterlimit:10;stroke-dasharray:11.9667,11.9667;}
	.st141{fill:#CECECE;}
	.st142{fill:#CACACA;}
	.st143{fill:#F9F9FA;stroke:#F7F9F9;stroke-miterlimit:10;}
	.st144{fill:#F37758;}
	.st145{fill:#5D6571;}
	.st146{fill:#FFFFFF;stroke:#424D5C;stroke-miterlimit:10;}
	.st147{fill:#619D9D;}
	.st148{fill:#5E9998;}
	.st149{fill:url(#SVGID_13_);}
	.st150{opacity:0.1;fill:#606161;}
	.st151{opacity:0.68;fill:#FFFFFF;}
	.st152{fill:#1F4D8E;}
	.st153{fill:#FEF7F5;}
	.st154{fill:#ED5940;}
	.st155{fill:#9C479B;}
	.st156{fill:#794D9F;}
	.st157{fill:#EC3F56;}
	.st158{fill:#AF4298;}
	.st159{fill:#E4376A;}
	.st160{fill:#D63981;}
	.st161{fill:#C73D94;}
	.st162{fill:#DF3874;}
	.st163{fill:#18AD4C;}
	.st164{opacity:0.68;fill:#FFFFFF;stroke:#727373;stroke-miterlimit:7;}
</style>
<g>
	<g>
		<circle class="st38" cx="155.2" cy="153.6" r="64.5"/>
		<path class="st136" d="M154.4,122.4c11.2-1.2,22.4,8.5,23.6,20c0.8,7.5-2,14-5.5,20.1c-2.7,4.7-4.3,9.7-5.2,14.9
			c-3.9,0-7.8,0-11.7,0.1l0-0.2c0-5.3,0-10.6,0-15.9c-2.7,3.3-2.7,3.3-5.1,0.1c-0.1-0.1-0.2-0.3-0.3-0.4c-0.7-1.1-1.9-1.2-2.7-0.6
			c-1,0.6,0,1.5,0.3,2.2c2.3,4.4,1.1,9.1,1.1,13.7c0,0.1-0.4,0.2-0.6,0.3c-0.1-0.2-0.3-0.4-0.3-0.5c0.1-5.5-0.1-11-3.1-15.9
			c-0.8-1.3,0.1-2.1,1.5-2.3c2.7-0.2,5.3-0.3,6.5,3.2c0.7-2.6,3-3.9,2.9-6.6c-0.1-9.8,0-19.6,0-29.4
			C155.5,124,155.6,122.9,154.4,122.4z"/>
		<path class="st137" d="M154.4,122.4c1.2,0.5,1.1,1.6,1.1,2.6c0,9.8-0.1,19.6,0,29.4c0,2.6-2.3,3.9-2.9,6.6
			c-1.2-3.5-3.8-3.4-6.5-3.2c-1.4,0.1-2.3,1-1.5,2.3c3,5,3.2,10.4,3.1,15.9c0,0.2,0.2,0.3,0.3,0.5c0.2-0.1,0.6-0.2,0.6-0.3
			c0.1-4.6,1.2-9.3-1.1-13.7c-0.3-0.6-1.3-1.6-0.3-2.2c0.8-0.5,2-0.4,2.7,0.6c0.1,0.2,0.2,0.3,0.3,0.4c2.4,3.2,2.4,3.2,5.1-0.1
			c0,5.3,0,10.6,0,15.9c-4.1,0.1-8.1,0.1-12.2,0.2c-0.8-4.8-2.1-9.4-4.6-13.7c-3.4-6-6.6-12.1-6.3-19.4
			C132.7,132.4,142.4,122.7,154.4,122.4z"/>
		<path class="st138" d="M155.5,206.6c-7.5,0.4-13.4-5-14.2-12.8c4.7-0.1,9.3-0.2,14-0.3C155.4,197.9,155.4,202.3,155.5,206.6z"/>
		<path class="st72" d="M155.5,206.6c-0.1-4.3-0.1-8.7-0.2-13l0.1,0c4.6,0.1,9.2,0.2,13.8,0.3C168.5,201.4,162.8,206.8,155.5,206.6z
			"/>
		<path class="st139" d="M155.3,193.6c-4.7,0.1-9.3,0.2-14,0.3c-1.4-0.1-2.2-0.8-2-2.3c0.1-1-0.4-2.4,1.5-2.3
			c4.8,0.1,9.7,0.2,14.5,0.2C155.4,190.8,155.4,192.2,155.3,193.6L155.3,193.6z"/>
		<path class="st139" d="M140.9,185.4c-1.7,0.1-1.5-1.2-1.5-2.3c-0.1-1.2,0.1-2.2,1.7-2.2c4.8,0.1,9.5,0.1,14.3,0.2
			c0,1.4,0,2.7,0.1,4.1C150.5,185.2,145.7,185.3,140.9,185.4z"/>
		<path class="st138" d="M155.4,185.2c0-1.4,0-2.7-0.1-4.1c0.1-0.1,0.1-0.2,0.2-0.3c4.7,0,9.3,0,14,0c1.7,0,1.8,1.1,1.8,2.4
			c0,1.2,0,2.3-1.6,2.1c-4.7,0-9.4,0-14,0C155.5,185.3,155.4,185.2,155.4,185.2z"/>
		<path class="st138" d="M155.4,193.6c0-1.4,0-2.8,0-4.1c0.1-0.1,0.1-0.2,0.2-0.2c4.7,0,9.4,0,14.1,0c1.7-0.2,1.5,1.1,1.6,2.2
			c0.2,1.7-0.6,2.4-2.1,2.5C164.5,193.8,159.9,193.7,155.4,193.6z"/>
		<path class="st137" d="M126.1,112.5c1,0.1,1.7,0.7,2.4,1.4c1.4,1.5,2.9,3,4.4,4.3c1.4,1.3,1.8,2.6,0.6,4.1
			c-1.3,1.7-3.3,1.3-4.4,0.2c-1.8-2-3.8-3.8-5.3-6C122.6,114.8,124.1,112.4,126.1,112.5z"/>
		<path class="st136" d="M179.1,123.3c-1.2,0-2-0.6-2.5-1.6c-0.4-1-0.6-2,0.3-2.8c1.9-1.9,3.8-3.8,5.8-5.7c1-0.9,2.2-1,3.3-0.2
			c1.1,0.9,1.5,2.2,0.7,3.2c-1.9,2.6-4.1,4.8-6.7,6.7C179.8,123.2,179.4,123.2,179.1,123.3z"/>
		<path class="st137" d="M118,142.1c1.3,0,2.6,0.1,3.9,0c1.6-0.1,2.1,0.9,2.3,2.2c0.2,1.5-0.5,2.7-2,2.8c-3,0.2-5.9,0.1-8.9,0
			c-1.4-0.1-2.1-1.2-2-2.6c0.1-1.4,0.9-2.3,2.3-2.4C115,142.1,116.5,142.1,118,142.1C118,142.1,118,142.1,118,142.1z"/>
		<path class="st137" d="M152.7,106.9c0-1.2,0-2.4,0-3.6c0-1.6,0.8-2.7,2.5-2.8c1.7-0.1,2.6,0.9,2.7,2.5c0.1,2.7,0.1,5.4,0,8.1
			c-0.1,1.5-1,2.4-2.5,2.4c-1.5,0-2.4-1-2.5-2.4C152.6,109.7,152.7,108.3,152.7,106.9C152.7,106.9,152.7,106.9,152.7,106.9z"/>
		<path class="st136" d="M192.6,147.2c-1.3,0-2.6,0.1-3.9,0c-1.5-0.1-2.4-1-2.5-2.5c0-1.5,0.8-2.5,2.4-2.6c2.7-0.1,5.4-0.1,8.1,0
			c1.5,0,2.4,1,2.5,2.5c0,1.5-0.8,2.5-2.4,2.6C195.4,147.3,194,147.2,192.6,147.2C192.6,147.2,192.6,147.2,192.6,147.2z"/>
		<path class="st138" d="M140.9,185.4c4.8-0.1,9.7-0.1,14.5-0.2c0.1,0.1,0.1,0.1,0.2,0.2c0,1.3,0,2.5,0,3.8
			c-0.1,0.1-0.1,0.2-0.2,0.2c-4.8-0.1-9.7-0.2-14.5-0.2C141,187.9,141.2,186.7,140.9,185.4z"/>
		<path class="st72" d="M155.6,189.2c0-1.3,0-2.5,0-3.8c4.7,0,9.4,0,14,0c-0.3,1.3-0.3,2.5,0,3.8C165,189.2,160.3,189.2,155.6,189.2
			z"/>
		<path class="st138" d="M155.3,181.1c-4.8-0.1-9.5-0.1-14.3-0.2c0.2-1.6,0.9-2.8,2.3-3.5c4.1-0.1,8.1-0.1,12.2-0.2c0,0,0,0.2,0,0.2
			c0,1.1,0,2.2,0,3.4C155.4,180.9,155.4,181,155.3,181.1z"/>
		<path class="st72" d="M155.5,180.9c0-1.1,0-2.2,0-3.4c3.9,0,7.8,0,11.7-0.1c1.3,0.8,2.1,1.9,2.2,3.5
			C164.8,180.9,160.2,180.9,155.5,180.9z"/>
	</g>
	<circle class="st47" cx="155" cy="153.6" r="69.2"/>
</g>
</svg>
